<svg width="1267" height="86" viewBox="0 0 1267 86" fill="none" xmlns="http://www.w3.org/2000/svg">
<path d="M1265.96 43.5059C1266 43.4026 1266.01 43.2953 1266 43.1882C1266.01 43.0694 1266 42.9502 1265.96 42.8353C1265.89 33.1554 1261.75 23.8968 1254.45 17.0751C1247.15 10.2533 1237.29 6.42076 1227 6.41174H1226.93C1216.67 6.43904 1206.85 10.2652 1199.57 17.0622C1192.29 23.8592 1188.15 33.0801 1188.04 42.7294C1188.01 42.8327 1188 42.9399 1188 43.047C1187.99 43.1658 1188.01 43.285 1188.04 43.4C1188.12 53.0799 1192.26 62.3385 1199.55 69.1602C1206.85 75.9819 1216.72 79.8145 1227 79.8235H1227.08C1237.33 79.7962 1247.16 75.97 1254.44 69.1731C1261.72 62.3761 1265.86 53.1551 1265.96 43.5059V43.5059ZM1203.68 21.1647C1209.07 16.0756 1216.18 12.9174 1223.78 12.2353C1223.04 19.3852 1219.69 26.0717 1214.29 31.1513C1208.89 36.2308 1201.79 39.3878 1194.19 40.0823C1194.91 32.9265 1198.26 26.2328 1203.68 21.1647V21.1647ZM1194.15 45.7647C1203.36 45.0502 1211.99 41.2845 1218.52 35.138C1225.05 28.9915 1229.06 20.8631 1229.81 12.2C1237.56 12.8158 1244.83 15.992 1250.33 21.1663C1255.82 26.3406 1259.2 33.179 1259.85 40.4706C1250.65 41.185 1242.01 44.9507 1235.48 51.0973C1228.95 57.2438 1224.95 65.3722 1224.19 74.0353C1216.44 73.4195 1209.18 70.2432 1203.68 65.0689C1198.18 59.8947 1194.81 53.0563 1194.15 45.7647V45.7647ZM1230.23 74C1230.97 66.8501 1234.32 60.1635 1239.72 55.084C1245.11 50.0044 1252.22 46.8474 1259.81 46.1529C1259.08 53.3028 1255.72 59.9894 1250.33 65.0689C1244.93 70.1485 1237.82 73.3055 1230.23 74V74Z" fill="#A8C956"/>
<path d="M889 85.4705C913.853 85.4705 934 66.5085 934 43.1176C934 19.7267 913.853 0.764648 889 0.764648C864.147 0.764648 844 19.7267 844 43.1176C844 66.5085 864.147 85.4705 889 85.4705Z" fill="#A8C956"/>
<path d="M889.001 68.9997C904.189 68.9997 916.501 57.4118 916.501 43.1173C916.501 28.8229 904.189 17.235 889.001 17.235C873.813 17.235 861.501 28.8229 861.501 43.1173C861.501 57.4118 873.813 68.9997 889.001 68.9997Z" fill="#445D05" fill-opacity="0.58"/>
<path d="M878.258 48.3008C878.258 44.9926 880.191 42.5526 882.961 41.1455C880.896 39.7385 879.621 37.8373 879.621 35.2302C879.621 30.3902 883.883 27.2891 889.113 27.2891C894.211 27.2891 898.648 30.3502 898.648 35.2302C898.648 37.5455 897.418 39.8632 895.263 41.1455C898.251 42.5526 899.966 45.1173 899.966 48.3008C899.966 54.0491 895.001 57.7314 889.111 57.7314C883.048 57.7314 878.258 53.8444 878.258 48.3008ZM885.113 47.8867C885.113 49.9949 886.431 52.0232 889.113 52.0232C891.618 52.0232 893.113 49.9973 893.113 47.8867C893.113 45.282 891.531 43.7502 889.113 43.7502C886.563 43.7526 885.113 45.5714 885.113 47.8867ZM885.948 35.8938C885.948 37.7549 887.091 39.0373 889.113 39.0373C891.136 39.0373 892.321 37.7549 892.321 35.8938C892.321 34.1149 891.178 32.7502 889.113 32.7502C887.048 32.7502 885.948 34.1149 885.948 35.8938V35.8938Z" fill="#14213D"/>
<path d="M752.92 57.5377C754.901 53.0241 755.945 48.1952 755.997 43.312V42.95C755.97 37.1837 754.536 31.5004 751.805 26.3384C749.075 21.1764 745.121 16.6738 740.248 13.1779C735.376 9.68205 729.715 7.28632 723.703 6.17559C717.691 5.06486 711.489 5.2688 705.574 6.7717C699.659 8.2746 694.19 11.0363 689.588 14.8437C684.987 18.651 681.377 23.4024 679.035 28.7311C676.694 34.0598 675.685 39.8235 676.086 45.5775C676.486 51.3315 678.286 56.922 681.346 61.9177C682.115 63.1484 682.961 64.3429 683.846 65.5013L684.038 65.7546C688.231 71.0042 693.811 75.1289 700.224 77.7182C706.637 80.3076 713.658 81.2713 720.59 80.5135C727.521 79.7557 734.121 77.3028 739.732 73.3989C745.344 69.495 749.771 64.2761 752.574 58.2617C752.728 58.0384 752.845 57.7943 752.92 57.5377V57.5377ZM701.806 14.1727C704.774 12.8893 707.921 12.0116 711.152 11.5665C716.892 14.1572 721.739 18.2171 725.14 23.2811C728.541 28.345 730.358 34.2082 730.382 40.199H717.767L701.806 14.1727ZM717.767 45.9906H749.689C749.386 49.0451 748.622 52.0434 747.42 54.8953C742.167 58.2764 736.009 60.1983 729.65 60.4416C723.291 60.6848 716.988 59.2395 711.46 56.2708L717.767 45.9906ZM745.305 27.1677C747.76 31.1579 749.257 35.6059 749.689 40.199H736.536C736.499 34.836 735.256 29.5412 732.89 24.6625C730.523 19.7838 727.087 15.4317 722.806 11.8922C727.49 12.798 731.917 14.6276 735.795 17.2606C739.673 19.8936 742.914 23.2701 745.305 27.1677V27.1677ZM696.499 17.0685L703.076 27.8193C698.145 30.5224 693.882 34.1837 690.573 38.5592C687.264 42.9347 684.983 47.9238 683.884 53.194C681.593 46.6953 681.582 39.6756 683.854 33.1708C686.125 26.666 690.558 21.0209 696.499 17.0685V17.0685ZM689.422 62.8226C688.928 56.8459 690.236 50.8593 693.196 45.5509C696.155 40.2426 700.646 35.828 706.152 32.8146L712.46 43.0948L696.499 69.121C693.816 67.3693 691.43 65.2459 689.422 62.8226V62.8226ZM732.921 70.6775C728.225 73.2265 722.948 74.6755 717.533 74.9023C712.117 75.1291 706.724 74.127 701.806 71.9807L708.383 61.2661C713.332 63.9328 718.828 65.5768 724.504 66.0886C730.181 66.6004 735.908 65.9683 741.305 64.2343C738.894 66.7897 736.063 68.965 732.921 70.6775V70.6775Z" fill="#A8C956"/>
<path d="M547.625 4.5293C525.225 4.5293 507 21.6822 507 42.7646C507 63.847 525.225 80.9999 547.625 80.9999C570.025 80.9999 588.25 63.847 588.25 42.7646C588.25 21.6822 570.025 4.5293 547.625 4.5293ZM547.625 10.4117C552.223 10.4118 556.773 11.2833 561.006 12.974C565.238 14.6648 569.065 17.1402 572.259 20.2528C569 22.4739 566.271 25.3134 564.25 28.5881L569.625 31.5587C571.281 28.8931 573.524 26.5917 576.203 24.8087C579.989 30.1186 582.007 36.37 582 42.7646C582 49.4028 579.859 55.5793 576.203 60.7205C573.485 58.9045 571.21 56.5631 569.531 53.8528L564.125 56.794C566.178 60.1245 568.949 63.0138 572.259 65.2764C569.065 68.389 565.238 70.8644 561.006 72.5552C556.773 74.2459 552.223 75.1174 547.625 75.1175C543.027 75.1174 538.477 74.2459 534.244 72.5552C530.012 70.8644 526.185 68.389 522.991 65.2764C526.302 63.0142 529.074 60.1248 531.128 56.794L525.722 53.8528C524.042 56.5634 521.766 58.9048 519.047 60.7205C515.261 55.4106 513.243 49.1592 513.25 42.7646C513.25 36.1264 515.391 29.9499 519.047 24.8087C521.727 26.5905 523.97 28.891 525.628 31.5558L531 28.5852C528.978 25.3115 526.25 22.473 522.991 20.2528C526.185 17.1402 530.012 14.6648 534.244 12.974C538.477 11.2833 543.027 10.4118 547.625 10.4117V10.4117ZM533.813 34.5587L527.844 36.294C528.531 38.4117 528.875 40.5881 528.875 42.7646C528.875 44.9117 528.563 47.0293 527.906 49.0881L533.875 50.7646C535.56 45.476 535.538 39.8357 533.813 34.5587V34.5587ZM561.438 34.5587C559.712 39.8357 559.69 45.476 561.375 50.7646L567.344 49.0881C566.688 47.0293 566.375 44.9117 566.375 42.7646C566.375 40.5881 566.719 38.4117 567.406 36.294L561.438 34.5587V34.5587Z" fill="#A8C956"/>
<path d="M211 5.47058C188.945 5.47058 171 22.3596 171 43.1176C171 63.8757 188.945 80.7647 211 80.7647C233.055 80.7647 251 63.8757 251 43.1176C251 22.3596 233.055 5.47058 211 5.47058ZM207.538 11.4449C207.671 11.4333 207.791 11.4536 207.923 11.4449V40.2217H198.498C197.88 32.3244 194.615 24.8154 189.175 18.7745C194.367 14.6381 200.77 12.0814 207.538 11.442V11.4449ZM214.077 11.4449C220.982 12.0041 227.532 14.5637 232.828 18.7716C227.385 24.8125 224.119 32.3228 223.498 40.2217H214.077V11.4449ZM184.846 22.933C189.146 27.8497 191.762 33.8776 192.348 40.2217H177.342C177.935 33.8795 180.55 27.8541 184.846 22.9359V22.933ZM237.154 22.933C241.449 27.8524 244.064 33.8788 244.655 40.2217H229.655C230.241 33.8789 232.856 27.8521 237.154 22.9359V22.933ZM177.345 46.0136H192.345C191.759 52.3564 189.144 58.3832 184.846 63.2994C180.552 58.3808 177.937 52.3554 177.345 46.0136V46.0136ZM198.498 46.0136H207.923V74.7933C201.018 74.2325 194.467 71.6707 189.172 67.4608C194.613 61.4203 197.879 53.9112 198.498 46.0136ZM214.077 46.0136H223.502C224.12 53.9109 227.385 61.4199 232.825 67.4608C227.531 71.6702 220.981 74.2319 214.077 74.7933V46.0136ZM229.655 46.0136H244.655C244.063 52.3554 241.448 58.3808 237.154 63.2994C232.854 58.3835 230.239 52.3567 229.652 46.0136H229.655Z" fill="#A8C956"/>
<path d="M1061 79.8236C1082.54 79.8236 1100 63.3898 1100 43.1177C1100 22.8455 1082.54 6.41174 1061 6.41174C1039.46 6.41174 1022 22.8455 1022 43.1177C1022 63.3898 1039.46 79.8236 1061 79.8236Z" stroke="#A8C956" stroke-width="6.00001" stroke-miterlimit="10"/>
<path d="M1067 37.4706C1069.49 37.4706 1071.5 35.5744 1071.5 33.2353C1071.5 30.8962 1069.49 29 1067 29C1064.51 29 1062.5 30.8962 1062.5 33.2353C1062.5 35.5744 1064.51 37.4706 1067 37.4706Z" fill="#A8C956"/>
<path d="M1068.5 24.7647C1070.99 24.7647 1073 22.8685 1073 20.5294C1073 18.1903 1070.99 16.2941 1068.5 16.2941C1066.01 16.2941 1064 18.1903 1064 20.5294C1064 22.8685 1066.01 24.7647 1068.5 24.7647Z" fill="#A8C956"/>
<path d="M1080.5 31.8235C1082.99 31.8235 1085 29.9273 1085 27.5882C1085 25.2491 1082.99 23.3529 1080.5 23.3529C1078.01 23.3529 1076 25.2491 1076 27.5882C1076 29.9273 1078.01 31.8235 1080.5 31.8235Z" fill="#A8C956"/>
<path d="M386.054 36.4822L393.106 43.1195M339.677 52.5778C339.004 58.2893 338.833 64.0432 339.163 69.7812C339.292 72.6164 340.546 75.303 342.679 77.3092C344.811 79.3154 347.666 80.4951 350.679 80.6149C355.701 80.8589 362.12 80.873 368.952 80.1314L339.677 52.5778ZM339.677 52.5778C341.068 41.2607 344.938 28.709 354.315 19.8844C363.691 11.0597 377.027 7.41721 389.051 6.10759L339.677 52.5778ZM339.677 52.5778L368.952 80.1314L339.677 52.5778ZM368.952 80.1314C380.977 78.8218 394.308 75.1792 403.689 66.3546C413.065 57.5299 416.936 44.9783 418.327 33.6611L368.952 80.1314ZM389.051 6.10759C395.12 5.47479 401.233 5.31309 407.33 5.62412C410.342 5.74508 413.197 6.92594 415.329 8.93302C417.46 10.9401 418.714 13.6272 418.841 16.4625C419.171 22.1989 418.999 27.9512 418.327 33.6611L389.051 6.10759ZM389.051 6.10759L418.327 33.6611L389.051 6.10759ZM364.898 56.394L371.95 49.7567L364.898 56.394ZM371.95 49.7567L364.898 43.1195L371.95 49.7567ZM371.95 49.7567L379.002 56.394L371.95 49.7567ZM371.95 49.7567L386.054 36.4822L371.95 49.7567ZM386.054 36.4822L393.106 29.845L386.054 36.4822ZM386.054 36.4822L379.002 29.845L386.054 36.4822Z" stroke="#A8C956" stroke-width="6.00001" stroke-linecap="round" stroke-linejoin="round"/>
<path d="M43 28.0588L58.2161 38.4645L43 28.0588ZM43 28.0588L27.784 38.4645L43 28.0588ZM43 28.0588V16.7647V28.0588ZM58.2161 38.4645L52.404 55.3003L58.2161 38.4645ZM58.2161 38.4645L69.0001 33.7059L58.2161 38.4645ZM52.404 55.3003H33.6H52.404ZM52.408 55.3003L59.0001 63.8236L52.408 55.3003ZM33.596 55.3003L27.784 38.4645L33.596 55.3003ZM33.596 55.3003L27 63.8236L33.596 55.3003ZM27.784 38.4645L17 33.7059L27.784 38.4645ZM17 33.7059L3.2 46.8824L17 33.7059ZM17 33.7059L13 18.2141L17 33.7059ZM69.0001 33.7059L82.8001 46.8824L69.0001 33.7059ZM69.0001 33.7059L73.0001 18.2141L69.0001 33.7059ZM43 16.7647L29.496 7.66917L43 16.7647ZM43 16.7647L56.5041 7.66917L43 16.7647ZM27 63.8236L8.35201 61.9412L27 63.8236ZM27 63.8236L37 80.3431L27 63.8236ZM59.0001 63.8236L77.6481 61.9412L59.0001 63.8236ZM59.0001 63.8236L49 80.3431L59.0001 63.8236ZM83.0001 43.1177C83.0001 63.9102 65.0921 80.7648 43 80.7648C20.908 80.7648 3 63.9102 3 43.1177C3 22.3252 20.908 5.47058 43 5.47058C65.0921 5.47058 83.0001 22.3252 83.0001 43.1177Z" stroke="#A8C956" stroke-width="6.00001" stroke-linecap="round" stroke-linejoin="round"/>
</svg>
