<svg width="114" height="26" viewBox="0 0 114 26" fill="none" xmlns="http://www.w3.org/2000/svg">
<path d="M25.9845 17.9995V5.58855H30.8725C32.1582 5.58855 33.1574 5.88133 33.8703 6.46687C34.5958 7.05241 34.9586 7.86708 34.9586 8.91088C34.9586 9.56007 34.825 10.0883 34.5577 10.4957C34.3031 10.903 33.9403 11.2085 33.4693 11.4122C32.9983 11.6158 32.4446 11.7495 31.8081 11.8131L31.8463 11.6986C32.3173 11.724 32.7628 11.7877 33.1829 11.8895C33.603 11.9786 33.9721 12.125 34.2903 12.3287C34.6213 12.5323 34.8822 12.8124 35.0732 13.1688C35.2641 13.5252 35.3596 13.9835 35.3596 14.5435C35.3596 15.2946 35.1941 15.9183 34.8632 16.4147C34.5322 16.9112 34.0676 17.2931 33.4693 17.5604C32.8838 17.815 32.2091 17.9613 31.4454 17.9995H25.9845ZM27.512 16.5675H31.0635C31.9291 16.5675 32.6037 16.4084 33.0874 16.0901C33.5839 15.7592 33.8321 15.2437 33.8321 14.5435C33.8321 13.9835 33.673 13.5634 33.3547 13.2834C33.0492 13.0033 32.6546 12.8187 32.1709 12.7296C31.6872 12.6278 31.1908 12.5769 30.6816 12.5769H27.512V16.5675ZM27.512 11.1449H30.6816C31.5472 11.1449 32.2218 10.9603 32.7056 10.5911C33.202 10.2093 33.4502 9.66826 33.4502 8.96816C33.4502 8.28078 33.202 7.78434 32.7056 7.47884C32.2218 7.17334 31.6108 7.02059 30.8725 7.02059H27.512V11.1449ZM41.0727 18.1905C40.3216 18.1905 39.6279 17.9804 38.9914 17.5604C38.3677 17.1276 37.8649 16.542 37.483 15.8037C37.1139 15.0527 36.9293 14.1999 36.9293 13.2452C36.9293 12.2905 37.1203 11.4376 37.5021 10.6866C37.884 9.93558 38.3995 9.34367 39.0487 8.91088C39.7106 8.47808 40.4489 8.26169 41.2636 8.26169C42.1547 8.26169 42.8293 8.49081 43.2875 8.94906C43.7585 9.39459 44.0768 9.99286 44.2422 10.7439C44.4204 11.4949 44.5096 12.3287 44.5096 13.2452C44.5096 13.7289 44.4586 14.2571 44.3568 14.83C44.255 15.39 44.0768 15.931 43.8222 16.4529C43.5803 16.9621 43.2366 17.3822 42.7911 17.7131C42.3456 18.0313 41.7728 18.1905 41.0727 18.1905ZM41.4545 16.7393C42.1037 16.7393 42.6384 16.5802 43.0584 16.262C43.4912 15.9438 43.8094 15.5237 44.0131 15.0018C44.2168 14.4672 44.3186 13.8816 44.3186 13.2452C44.3186 12.5451 44.2104 11.9341 43.994 11.4122C43.7904 10.8775 43.4721 10.4638 43.0393 10.1711C42.6193 9.86557 42.091 9.71282 41.4545 9.71282C40.4999 9.71282 39.7616 10.0501 39.2397 10.7248C38.7178 11.3867 38.4568 12.2268 38.4568 13.2452C38.4568 13.9198 38.5841 14.5245 38.8387 15.0591C39.106 15.581 39.4624 15.9947 39.9079 16.3002C40.3662 16.593 40.8817 16.7393 41.4545 16.7393ZM44.3186 8.45263H45.8461V17.9995H44.4523C44.4523 17.9995 44.4395 17.885 44.4141 17.6558C44.4014 17.4267 44.3823 17.1594 44.3568 16.8539C44.3313 16.5484 44.3186 16.2938 44.3186 16.0901V8.45263ZM47.8765 14.9254H49.2894C49.3276 15.4728 49.5313 15.9183 49.9004 16.262C50.2823 16.6057 50.8297 16.7775 51.5425 16.7775C51.9753 16.7775 52.3126 16.7202 52.5545 16.6057C52.809 16.4911 52.9936 16.3384 53.1082 16.1474C53.2227 15.9438 53.28 15.721 53.28 15.4791C53.28 15.1864 53.2036 14.9572 53.0509 14.7918C52.9109 14.6136 52.7136 14.4672 52.459 14.3526C52.2171 14.238 51.9371 14.1298 51.6189 14.028C51.2497 13.888 50.8678 13.7416 50.4732 13.5889C50.0914 13.4234 49.7286 13.2324 49.3849 13.016C49.0539 12.7869 48.7866 12.5132 48.5829 12.195C48.3793 11.8641 48.2774 11.4694 48.2774 11.0112C48.2774 10.6293 48.3538 10.2729 48.5066 9.94194C48.6593 9.59825 48.8757 9.30548 49.1558 9.06363C49.4485 8.80904 49.7859 8.61174 50.1677 8.47172C50.5623 8.3317 50.9951 8.26169 51.4661 8.26169C52.1026 8.26169 52.6372 8.38898 53.07 8.64356C53.5155 8.89815 53.8528 9.26093 54.082 9.73191C54.3238 10.1902 54.4511 10.7248 54.4638 11.3358H53.1464C53.0573 10.763 52.8727 10.3493 52.5926 10.0947C52.3253 9.82738 51.9371 9.69372 51.4279 9.69372C50.906 9.69372 50.5051 9.80828 50.225 10.0374C49.945 10.2665 49.805 10.572 49.805 10.9539C49.805 11.234 49.9068 11.4694 50.1105 11.6604C50.3141 11.8386 50.5751 12.0041 50.8933 12.1568C51.2243 12.2968 51.5743 12.4432 51.9435 12.596C52.3126 12.7487 52.669 12.9015 53.0127 13.0542C53.3564 13.207 53.6619 13.3852 53.9292 13.5889C54.1965 13.7925 54.4066 14.0471 54.5593 14.3526C54.7248 14.6454 54.8075 15.0145 54.8075 15.4601C54.8075 15.9947 54.6802 16.472 54.4257 16.8921C54.1838 17.2994 53.821 17.6177 53.3373 17.8468C52.8663 18.0759 52.2871 18.1905 51.5998 18.1905C50.976 18.1905 50.4414 18.1141 49.9959 17.9613C49.5631 17.7959 49.2003 17.5858 48.9075 17.3312C48.6148 17.0639 48.3856 16.7839 48.2202 16.4911C48.0674 16.1983 47.9656 15.9119 47.9147 15.6319C47.8637 15.3519 47.851 15.1164 47.8765 14.9254ZM56.992 4.63386H58.5195V17.9995H56.992V4.63386ZM64.8968 8.45263L60.1234 13.1688L60.1615 12.1759L65.2214 17.9995H63.2738L58.5577 12.6724L62.7201 8.45263H64.8968ZM73.0317 14.9254H74.4637C74.3619 15.5492 74.1327 16.1092 73.7763 16.6057C73.4326 17.0894 72.9744 17.4776 72.4016 17.7704C71.8415 18.0504 71.1923 18.1905 70.454 18.1905C69.563 18.1905 68.761 17.9804 68.0482 17.5604C67.3354 17.1276 66.7689 16.542 66.3488 15.8037C65.9415 15.0527 65.7378 14.1999 65.7378 13.2452C65.7378 12.2905 65.9351 11.4376 66.3297 10.6866C66.7371 9.93558 67.2908 9.34367 67.9909 8.91088C68.691 8.47808 69.4802 8.26169 70.3585 8.26169C71.2878 8.26169 72.0706 8.47172 72.7071 8.89178C73.3563 9.29912 73.8336 9.90375 74.1391 10.7057C74.4573 11.4949 74.5846 12.4687 74.521 13.627H67.2653C67.329 14.2508 67.5008 14.7981 67.7809 15.2691C68.0609 15.7401 68.4301 16.1092 68.8883 16.3766C69.3466 16.6311 69.8685 16.7584 70.454 16.7584C71.1032 16.7584 71.6505 16.593 72.0961 16.262C72.5543 15.9183 72.8662 15.4728 73.0317 14.9254ZM70.4158 9.69372C69.6266 9.69372 68.9647 9.92285 68.4301 10.3811C67.8954 10.8394 67.539 11.4631 67.3608 12.2523H72.9553C72.9044 11.4122 72.6307 10.7757 72.1343 10.3429C71.6505 9.91012 71.0777 9.69372 70.4158 9.69372ZM75.6359 8.45263H81.2495V9.88466H75.6359V8.45263ZM77.6789 5.97043H79.2064V17.9995H77.6789V5.97043ZM88.114 18.1905C87.4139 18.1905 86.8411 18.0313 86.3955 17.7131C85.95 17.3822 85.6 16.9621 85.3454 16.4529C85.1035 15.931 84.9317 15.39 84.8298 14.83C84.728 14.2571 84.6771 13.7289 84.6771 13.2452C84.6771 12.5578 84.7216 11.915 84.8108 11.3167C84.9126 10.7184 85.0844 10.1902 85.3263 9.73191C85.5681 9.27366 85.9118 8.91724 86.3574 8.66266C86.8156 8.39534 87.4011 8.26169 88.114 8.26169C88.9159 8.26169 89.6288 8.47808 90.2525 8.91088C90.8762 9.34367 91.3663 9.93558 91.7227 10.6866C92.0791 11.4376 92.2573 12.2905 92.2573 13.2452C92.2573 14.1999 92.0728 15.0527 91.7036 15.8037C91.3345 16.542 90.838 17.1276 90.2143 17.5604C89.5906 17.9804 88.8905 18.1905 88.114 18.1905ZM87.7321 16.7393C88.3176 16.7393 88.8332 16.593 89.2787 16.3002C89.7242 15.9947 90.0743 15.581 90.3289 15.0591C90.5962 14.5245 90.7298 13.9198 90.7298 13.2452C90.7298 12.2268 90.4689 11.3867 89.947 10.7248C89.4251 10.0501 88.6868 9.71282 87.7321 9.71282C87.0956 9.71282 86.561 9.86557 86.1282 10.1711C85.7082 10.4638 85.3899 10.8775 85.1735 11.4122C84.9699 11.9341 84.868 12.5451 84.868 13.2452C84.868 13.8816 84.9699 14.4672 85.1735 15.0018C85.3899 15.5237 85.7082 15.9438 86.1282 16.262C86.5483 16.5802 87.0829 16.7393 87.7321 16.7393ZM84.868 4.63386V16.0901C84.868 16.3193 84.8489 16.6248 84.8108 17.0066C84.7853 17.3885 84.7598 17.7195 84.7344 17.9995H83.3405V4.63386H84.868ZM97.8133 18.1905C97.0623 18.1905 96.3686 17.9804 95.7321 17.5604C95.1084 17.1276 94.6056 16.542 94.2237 15.8037C93.8546 15.0527 93.67 14.1999 93.67 13.2452C93.67 12.2905 93.8609 11.4376 94.2428 10.6866C94.6247 9.93558 95.1402 9.34367 95.7894 8.91088C96.4513 8.47808 97.1896 8.26169 98.0043 8.26169C98.8953 8.26169 99.57 8.49081 100.028 8.94906C100.499 9.39459 100.817 9.99286 100.983 10.7439C101.161 11.4949 101.25 12.3287 101.25 13.2452C101.25 13.7289 101.199 14.2571 101.097 14.83C100.996 15.39 100.817 15.931 100.563 16.4529C100.321 16.9621 99.9773 17.3822 99.5318 17.7131C99.0863 18.0313 98.5134 18.1905 97.8133 18.1905ZM98.1952 16.7393C98.8444 16.7393 99.379 16.5802 99.7991 16.262C100.232 15.9438 100.55 15.5237 100.754 15.0018C100.957 14.4672 101.059 13.8816 101.059 13.2452C101.059 12.5451 100.951 11.9341 100.735 11.4122C100.531 10.8775 100.213 10.4638 99.78 10.1711C99.3599 9.86557 98.8317 9.71282 98.1952 9.71282C97.2405 9.71282 96.5022 10.0501 95.9803 10.7248C95.4584 11.3867 95.1975 12.2268 95.1975 13.2452C95.1975 13.9198 95.3248 14.5245 95.5794 15.0591C95.8467 15.581 96.2031 15.9947 96.6486 16.3002C97.1069 16.593 97.6224 16.7393 98.1952 16.7393ZM101.059 8.45263H102.587V17.9995H101.193C101.193 17.9995 101.18 17.885 101.155 17.6558C101.142 17.4267 101.123 17.1594 101.097 16.8539C101.072 16.5484 101.059 16.2938 101.059 16.0901V8.45263ZM105.266 4.63386H106.794V17.9995H105.266V4.63386ZM109.667 4.63386H111.194V17.9995H109.667V4.63386Z" fill="#BDBDBD"/>
<path d="M8.94363 4.77301C4.33247 4.77301 0.590088 8.5154 0.590088 13.1265C0.590088 17.7377 4.33247 21.4801 8.94363 21.4801C13.5548 21.4801 17.2972 17.7377 17.2972 13.1265C17.2972 8.5154 13.5548 4.77301 8.94363 4.77301ZM3.28828 9.5763C4.01504 10.3031 4.51625 11.2386 4.69168 12.2912H2.31927C2.44457 11.3055 2.78707 10.3866 3.28828 9.5763ZM2.31927 13.9619H4.69168C4.51625 15.0144 4.01504 15.95 3.28828 16.6768C2.78707 15.8665 2.44457 14.9476 2.31927 13.9619ZM8.10827 19.7509C6.66311 19.5671 5.35996 18.9156 4.35753 17.9633C5.44349 16.9274 6.18696 15.5324 6.37909 13.9619H8.10827V19.7509ZM8.10827 12.2912H6.37909C6.17861 10.7207 5.44349 9.31734 4.34918 8.2815C5.35996 7.32919 6.66311 6.68597 8.10827 6.50219V12.2912ZM15.568 12.2912H13.1956C13.371 11.2386 13.8722 10.3031 14.599 9.5763C15.1002 10.3866 15.4427 11.3055 15.568 12.2912ZM9.77898 6.50219C11.2241 6.68597 12.5273 7.32919 13.5381 8.2815C12.4438 9.31734 11.7086 10.7207 11.5082 12.2912H9.77898V6.50219ZM9.77898 19.7509V13.9619H11.5082C11.7086 15.5324 12.4438 16.9274 13.5297 17.9633C12.5273 18.9156 11.2241 19.5671 9.77898 19.7509ZM14.599 16.6768C13.8722 15.9584 13.3794 15.0144 13.1956 13.9619H15.568C15.4427 14.9476 15.1002 15.8665 14.599 16.6768Z" fill="#BDBDBD"/>
</svg>
