<svg width="86" height="26" viewBox="0 0 86 26" fill="none" xmlns="http://www.w3.org/2000/svg">
<path d="M28.1588 17.9998V5.58879H33.0468C34.3325 5.58879 35.3317 5.88156 36.0445 6.46711C36.7701 7.05265 37.1329 7.86732 37.1329 8.91111C37.1329 9.5603 36.9992 10.0886 36.7319 10.4959C36.4773 10.9032 36.1145 11.2087 35.6436 11.4124C35.1726 11.6161 34.6189 11.7497 33.9824 11.8134L34.0206 11.6988C34.4916 11.7243 34.9371 11.7879 35.3572 11.8897C35.7772 11.9789 36.1464 12.1252 36.4646 12.3289C36.7956 12.5326 37.0565 12.8126 37.2474 13.169C37.4384 13.5254 37.5338 13.9837 37.5338 14.5438C37.5338 15.2948 37.3684 15.9185 37.0374 16.415C36.7065 16.9114 36.2418 17.2933 35.6436 17.5606C35.058 17.8152 34.3834 17.9616 33.6196 17.9998H28.1588ZM29.6863 16.5677H33.2377C34.1033 16.5677 34.778 16.4086 35.2617 16.0904C35.7581 15.7594 36.0063 15.2439 36.0063 14.5438C36.0063 13.9837 35.8472 13.5636 35.529 13.2836C35.2235 13.0036 34.8289 12.819 34.3452 12.7299C33.8615 12.628 33.365 12.5771 32.8559 12.5771H29.6863V16.5677ZM29.6863 11.1451H32.8559C33.7215 11.1451 34.3961 10.9605 34.8798 10.5914C35.3762 10.2095 35.6245 9.6685 35.6245 8.96839C35.6245 8.28102 35.3762 7.78458 34.8798 7.47908C34.3961 7.17358 33.7851 7.02083 33.0468 7.02083H29.6863V11.1451ZM43.7816 18.1907C42.9669 18.1907 42.2031 17.9934 41.4903 17.5988C40.7775 17.2042 40.1983 16.6377 39.7528 15.8994C39.32 15.1484 39.1036 14.2637 39.1036 13.2454C39.1036 12.2271 39.32 11.3488 39.7528 10.6105C40.1983 9.85944 40.7775 9.28026 41.4903 8.87293C42.2031 8.46559 42.9669 8.26192 43.7816 8.26192C44.5962 8.26192 45.3536 8.46559 46.0537 8.87293C46.7665 9.28026 47.3394 9.85944 47.7722 10.6105C48.2049 11.3488 48.4213 12.2271 48.4213 13.2454C48.4213 14.2637 48.2049 15.1484 47.7722 15.8994C47.3394 16.6377 46.7665 17.2042 46.0537 17.5988C45.3536 17.9934 44.5962 18.1907 43.7816 18.1907ZM43.7816 16.7587C44.3162 16.7587 44.819 16.625 45.29 16.3577C45.7609 16.0904 46.1428 15.6958 46.4356 15.1739C46.7411 14.6393 46.8938 13.9964 46.8938 13.2454C46.8938 12.4944 46.7411 11.8579 46.4356 11.336C46.1428 10.8014 45.7609 10.3941 45.29 10.114C44.819 9.83398 44.3162 9.69396 43.7816 9.69396C43.2469 9.69396 42.7378 9.83398 42.254 10.114C41.7831 10.3813 41.3948 10.7823 41.0893 11.3169C40.7838 11.8388 40.6311 12.4817 40.6311 13.2454C40.6311 13.9964 40.7775 14.6393 41.0702 15.1739C41.3757 15.6958 41.7703 16.0904 42.254 16.3577C42.7378 16.625 43.2469 16.7587 43.7816 16.7587ZM57.9086 8.45286L54.2044 13.6464L51.1685 17.9998H49.3164L53.2688 12.5198L56.0565 8.45286H57.9086ZM49.3164 8.45286H51.2257L54.1853 12.558L58.0995 17.9998H56.2474L53.1542 13.6464L49.3164 8.45286ZM61.7038 4.6341V6.4862H59.718V4.6341H61.7038ZM59.9471 8.45286H61.4746V17.9998H59.9471V8.45286ZM64.0835 8.45286H65.611V17.9998H64.0835V8.45286ZM68.8951 8.26192C69.4043 8.26192 69.8625 8.3383 70.2699 8.49105C70.6772 8.6438 71.0209 8.86656 71.3009 9.15933C71.581 9.4521 71.7974 9.80852 71.9501 10.2286C72.1029 10.6359 72.1793 11.1005 72.1793 11.6224V17.9998H70.6518V12.0043C70.6518 11.266 70.4799 10.7123 70.1362 10.3431C69.7925 9.974 69.277 9.78943 68.5896 9.78943C68.0677 9.78943 67.584 9.92308 67.1385 10.1904C66.693 10.4577 66.3238 10.8269 66.0311 11.2978C65.751 11.7561 65.5792 12.2907 65.5155 12.9017L65.4964 11.7943C65.5601 11.2597 65.6874 10.7759 65.8783 10.3431C66.082 9.91035 66.3302 9.54121 66.623 9.23571C66.9285 8.91748 67.2722 8.67562 67.654 8.51014C68.0486 8.34466 68.4623 8.26192 68.8951 8.26192ZM78.0737 16.4914C77.3991 16.4914 76.7563 16.3322 76.1453 16.014C75.547 15.683 75.0569 15.2121 74.675 14.6011C74.3059 13.9901 74.1213 13.2581 74.1213 12.4053C74.1213 11.5524 74.3059 10.8205 74.675 10.2095C75.0442 9.58576 75.5279 9.10842 76.1262 8.77746C76.7244 8.43377 77.3736 8.26192 78.0737 8.26192C78.2901 8.26192 78.4938 8.28102 78.6847 8.3192C78.8884 8.34466 79.0793 8.38922 79.2575 8.45286H83.1336V10.0949C82.5862 10.0949 82.0389 9.99309 81.4915 9.78943C80.9569 9.58576 80.4986 9.37573 80.1168 9.15933L80.0404 9.08296C80.4859 9.32481 80.8487 9.61122 81.1287 9.94218C81.4215 10.2731 81.6379 10.6486 81.7779 11.0687C81.9307 11.476 82.007 11.9216 82.007 12.4053C82.007 13.2581 81.8225 13.9901 81.4533 14.6011C81.0969 15.2121 80.6196 15.683 80.0213 16.014C79.423 16.3322 78.7738 16.4914 78.0737 16.4914ZM80.8805 21.8185V21.3985C80.8805 20.7238 80.7023 20.2337 80.3459 19.9282C80.0022 19.6227 79.4803 19.47 78.7802 19.47H76.8708C76.4508 19.47 76.0816 19.4318 75.7634 19.3554C75.4579 19.2918 75.2033 19.1899 74.9996 19.0499C74.796 18.9099 74.6432 18.7381 74.5414 18.5344C74.4395 18.3307 74.3886 18.1016 74.3886 17.847C74.3886 17.3633 74.535 17.0005 74.8278 16.7587C75.1206 16.5041 75.4833 16.345 75.9161 16.2813C76.3489 16.2177 76.7626 16.2177 77.1572 16.2813L78.0737 16.4914C77.3863 16.5295 76.8517 16.5996 76.4698 16.7014C76.1007 16.8032 75.9161 17.0196 75.9161 17.3506C75.9161 17.5415 75.9861 17.7006 76.1262 17.8279C76.2789 17.9425 76.5017 17.9998 76.7944 17.9998H78.7802C79.4421 17.9998 80.0468 18.0889 80.5941 18.2671C81.1415 18.458 81.5806 18.7699 81.9116 19.2027C82.2425 19.6482 82.408 20.2528 82.408 21.0166V21.8185H80.8805ZM78.0737 15.0593C78.4938 15.0593 78.882 14.9575 79.2384 14.7538C79.6076 14.5501 79.9067 14.251 80.1359 13.8564C80.365 13.4618 80.4795 12.9781 80.4795 12.4053C80.4795 11.8325 80.365 11.3488 80.1359 10.9541C79.9195 10.5468 79.6267 10.2413 79.2575 10.0376C78.8884 9.82125 78.4938 9.71305 78.0737 9.71305C77.6537 9.71305 77.2591 9.82125 76.8899 10.0376C76.5208 10.2413 76.2216 10.5405 75.9925 10.9351C75.7634 11.3297 75.6488 11.8197 75.6488 12.4053C75.6488 12.9781 75.7634 13.4618 75.9925 13.8564C76.2216 14.251 76.5208 14.5501 76.8899 14.7538C77.2591 14.9575 77.6537 15.0593 78.0737 15.0593Z" fill="#BDBDBD"/>
<path d="M13.4922 7.43324C14.3728 7.43324 15.0867 6.71937 15.0867 5.83877C15.0867 4.95816 14.3728 4.24429 13.4922 4.24429C12.6116 4.24429 11.8978 4.95816 11.8978 5.83877C11.8978 6.71937 12.6116 7.43324 13.4922 7.43324Z" fill="#BDBDBD"/>
<path d="M19.4708 13.4132V9.66622L15.4448 7.96014C14.6715 7.63327 13.7785 7.9123 13.3321 8.62982L12.5349 9.90539C12.0007 10.8461 11.0121 11.5477 9.81628 11.755L9.86412 11.8028C10.4142 12.3529 11.0759 12.6559 11.8253 12.7356C12.4631 12.4007 13.0371 11.9543 13.4915 11.4281L13.9699 13.8198L13.0451 14.6968L12.2957 15.4063V16.0122V21.3856H13.8902V16.6022L15.5644 15.0077L16.9994 21.3856H18.6736L16.9356 12.616L16.4413 10.1446L17.8763 10.7026V13.4132H19.4708Z" fill="#BDBDBD"/>
<path d="M8.54098 10.3914C8.71637 10.511 8.91568 10.5827 9.11499 10.6226C9.21863 10.6385 9.3143 10.6545 9.41794 10.6545C9.52158 10.6545 9.62522 10.6465 9.72089 10.6226C9.82453 10.6066 9.9202 10.5747 10.0159 10.5349C10.2072 10.4552 10.3906 10.3435 10.542 10.1841C10.9327 9.79345 11.0762 9.25133 10.9805 8.74907C10.9247 8.4541 10.7812 8.15912 10.542 7.92792C10.3906 7.77644 10.2072 7.65686 10.0159 7.57714C9.9202 7.53727 9.82453 7.50538 9.72089 7.48944C9.61725 7.47349 9.52158 7.45755 9.41794 7.45755C9.32227 7.45755 9.23458 7.46552 9.13891 7.48147C9.02729 7.49741 8.91568 7.5293 8.81204 7.56916C8.62868 7.65686 8.44531 7.77644 8.29384 7.92792C8.05467 8.15912 7.91116 8.4541 7.85536 8.74907C7.75969 9.25133 7.90319 9.79345 8.29384 10.1841C8.36559 10.2638 8.45329 10.3276 8.54098 10.3914Z" fill="#BDBDBD"/>
<path d="M9.29839 12.3603L7.70392 10.7659C7.6242 10.6861 7.54447 10.6224 7.45678 10.5586C7.28138 10.447 7.08207 10.3672 6.88277 10.3354C6.77913 10.3114 6.68346 10.3035 6.57982 10.3035C6.17323 10.3035 5.76663 10.4629 5.45571 10.7738L2.79294 13.4366C2.46608 13.7635 2.29866 14.2179 2.33055 14.6643C2.33055 14.8079 2.36244 14.9593 2.41824 15.1028L3.27129 17.4547L0.377319 20.3486L1.50142 21.4807L4.8817 18.1004V16.3306L5.91811 17.2952V21.385H7.51258V16.6016L5.82244 14.9115L7.70392 13.03L8.26996 13.5961C9.29839 14.6006 10.6377 15.2224 12.2801 15.2224L12.1684 13.5721C10.9726 13.5562 10.0159 13.0778 9.29839 12.3603Z" fill="#BDBDBD"/>
</svg>
