<svg width="90" height="25" viewBox="0 0 90 25" fill="none" xmlns="http://www.w3.org/2000/svg">
<path d="M11.7108 18L13.2108 14L8.32882 12L11.3288 8.5L14.3288 11H17.8288M14.2108 7C14.7412 7 15.25 6.78929 15.625 6.41421C16.0001 6.03914 16.2108 5.53043 16.2108 5C16.2108 4.46957 16.0001 3.96086 15.625 3.58579C15.25 3.21071 14.7412 3 14.2108 3C13.6804 3 13.1717 3.21071 12.7966 3.58579C12.4215 3.96086 12.2108 4.46957 12.2108 5C12.2108 5.53043 12.4215 6.03914 12.7966 6.41421C13.1717 6.78929 13.6804 7 14.2108 7ZM18.2108 21C19.0065 21 19.7695 20.6839 20.3321 20.1213C20.8947 19.5587 21.2108 18.7956 21.2108 18C21.2108 17.2044 20.8947 16.4413 20.3321 15.8787C19.7695 15.3161 19.0065 15 18.2108 15C17.4152 15 16.6521 15.3161 16.0895 15.8787C15.5269 16.4413 15.2108 17.2044 15.2108 18C15.2108 18.7956 15.5269 19.5587 16.0895 20.1213C16.6521 20.6839 17.4152 21 18.2108 21ZM6.21082 21C7.00646 21 7.76953 20.6839 8.33214 20.1213C8.89475 19.5587 9.21082 18.7956 9.21082 18C9.21082 17.2044 8.89475 16.4413 8.33214 15.8787C7.76953 15.3161 7.00646 15 6.21082 15C5.41517 15 4.6521 15.3161 4.0895 15.8787C3.52689 16.4413 3.21082 17.2044 3.21082 18C3.21082 18.7956 3.52689 19.5587 4.0895 20.1213C4.6521 20.6839 5.41517 21 6.21082 21V21Z" stroke="#BDBDBD" stroke-width="1.5" stroke-linecap="round" stroke-linejoin="round"/>
<path d="M39.4325 13.8564C39.3052 14.7475 38.9997 15.5176 38.516 16.1668C38.0323 16.8159 37.415 17.3188 36.6639 17.6752C35.9256 18.0189 35.0982 18.1907 34.1817 18.1907C33.3289 18.1907 32.5397 18.0443 31.8141 17.7515C31.0885 17.446 30.4521 17.0133 29.9047 16.4532C29.3701 15.8931 28.95 15.2184 28.6445 14.4292C28.339 13.64 28.1863 12.7617 28.1863 11.7943C28.1863 10.8141 28.339 9.93581 28.6445 9.15933C28.95 8.37012 29.3701 7.69547 29.9047 7.13539C30.4521 6.5753 31.0885 6.14888 31.8141 5.8561C32.5397 5.5506 33.3289 5.39785 34.1817 5.39785C35.111 5.39785 35.9447 5.57606 36.683 5.93248C37.4341 6.27617 38.0514 6.77897 38.5351 7.44089C39.0188 8.09008 39.3243 8.86656 39.4516 9.77033H38.0387C37.8605 9.13387 37.5804 8.59925 37.1986 8.16645C36.8294 7.73366 36.3839 7.4027 35.862 7.17358C35.3401 6.94445 34.78 6.82989 34.1817 6.82989C33.4053 6.82989 32.6733 7.02083 31.986 7.4027C31.3113 7.78458 30.764 8.34466 30.3439 9.08296C29.9238 9.82125 29.7138 10.725 29.7138 11.7943C29.7138 12.8635 29.9238 13.7673 30.3439 14.5056C30.764 15.2439 31.3113 15.804 31.986 16.1859C32.6733 16.5677 33.4053 16.7587 34.1817 16.7587C34.78 16.7587 35.3337 16.6505 35.8429 16.4341C36.3648 16.2049 36.8103 15.874 37.1795 15.4412C37.5613 15.0084 37.8414 14.4801 38.0196 13.8564H39.4325ZM40.7964 8.45286H42.4385L45.8563 17.6179L44.5197 17.9998L40.7964 8.45286ZM49.675 8.45286L44.3479 21.8185H42.6867L44.997 16.6632L48.052 8.45286H49.675ZM59.4937 14.4101C59.4046 15.1993 59.15 15.8804 58.73 16.4532C58.3226 17.0133 57.8071 17.446 57.1834 17.7515C56.5596 18.0443 55.885 18.1907 55.1594 18.1907C54.3447 18.1907 53.581 17.9934 52.8682 17.5988C52.1553 17.2042 51.5761 16.6377 51.1306 15.8994C50.6978 15.1484 50.4814 14.2637 50.4814 13.2454C50.4814 12.2271 50.6978 11.3488 51.1306 10.6105C51.5761 9.85944 52.1553 9.28026 52.8682 8.87293C53.581 8.46559 54.3447 8.26192 55.1594 8.26192C55.885 8.26192 56.5533 8.41467 57.1643 8.72017C57.788 9.02568 58.3035 9.45847 58.7109 10.0186C59.1309 10.5786 59.3919 11.2469 59.4937 12.0234H58.0999C57.8835 11.2978 57.508 10.7314 56.9733 10.3241C56.4387 9.90399 55.8341 9.69396 55.1594 9.69396C54.6121 9.69396 54.0965 9.83398 53.6128 10.114C53.1291 10.3941 52.7409 10.8014 52.4481 11.336C52.1553 11.8579 52.0089 12.4944 52.0089 13.2454C52.0089 13.9837 52.1553 14.6202 52.4481 15.1548C52.7409 15.6767 53.1227 16.0777 53.5937 16.3577C54.0774 16.625 54.5993 16.7587 55.1594 16.7587C55.9359 16.7587 56.566 16.555 57.0497 16.1477C57.5461 15.7276 57.9026 15.1484 58.119 14.4101H59.4937ZM61.6303 4.6341H63.1578V17.9998H61.6303V4.6341ZM67.7302 4.6341V6.4862H65.7444V4.6341H67.7302ZM65.9735 8.45286H67.501V17.9998H65.9735V8.45286ZM70.1099 8.45286H71.6374V17.9998H70.1099V8.45286ZM74.9215 8.26192C75.4307 8.26192 75.8889 8.3383 76.2963 8.49105C76.7036 8.6438 77.0473 8.86656 77.3273 9.15933C77.6074 9.4521 77.8238 9.80852 77.9765 10.2286C78.1293 10.6359 78.2056 11.1005 78.2056 11.6224V17.9998H76.6781V12.0043C76.6781 11.266 76.5063 10.7123 76.1626 10.3431C75.8189 9.974 75.3034 9.78943 74.616 9.78943C74.0941 9.78943 73.6104 9.92308 73.1649 10.1904C72.7194 10.4577 72.3502 10.8269 72.0574 11.2978C71.7774 11.7561 71.6055 12.2907 71.5419 12.9017L71.5228 11.7943C71.5865 11.2597 71.7137 10.7759 71.9047 10.3431C72.1084 9.91035 72.3566 9.54121 72.6493 9.23571C72.9548 8.91748 73.2985 8.67562 73.6804 8.51014C74.075 8.34466 74.4887 8.26192 74.9215 8.26192ZM84.1001 16.4914C83.4255 16.4914 82.7826 16.3322 82.1716 16.014C81.5734 15.683 81.0833 15.2121 80.7014 14.6011C80.3323 13.9901 80.1477 13.2581 80.1477 12.4053C80.1477 11.5524 80.3323 10.8205 80.7014 10.2095C81.0706 9.58576 81.5543 9.10842 82.1525 8.77746C82.7508 8.43377 83.4 8.26192 84.1001 8.26192C84.3165 8.26192 84.5202 8.28102 84.7111 8.3192C84.9148 8.34466 85.1057 8.38922 85.2839 8.45286H89.16V10.0949C88.6126 10.0949 88.0653 9.99309 87.5179 9.78943C86.9833 9.58576 86.525 9.37573 86.1431 9.15933L86.0668 9.08296C86.5123 9.32481 86.8751 9.61122 87.1551 9.94218C87.4479 10.2731 87.6643 10.6486 87.8043 11.0687C87.9571 11.476 88.0334 11.9216 88.0334 12.4053C88.0334 13.2581 87.8489 13.9901 87.4797 14.6011C87.1233 15.2121 86.6459 15.683 86.0477 16.014C85.4494 16.3322 84.8002 16.4914 84.1001 16.4914ZM86.9069 21.8185V21.3985C86.9069 20.7238 86.7287 20.2337 86.3723 19.9282C86.0286 19.6227 85.5067 19.47 84.8066 19.47H82.8972C82.4771 19.47 82.108 19.4318 81.7898 19.3554C81.4843 19.2918 81.2297 19.1899 81.026 19.0499C80.8223 18.9099 80.6696 18.7381 80.5677 18.5344C80.4659 18.3307 80.415 18.1016 80.415 17.847C80.415 17.3633 80.5614 17.0005 80.8542 16.7587C81.1469 16.5041 81.5097 16.345 81.9425 16.2813C82.3753 16.2177 82.789 16.2177 83.1836 16.2813L84.1001 16.4914C83.4127 16.5295 82.8781 16.5996 82.4962 16.7014C82.1271 16.8032 81.9425 17.0196 81.9425 17.3506C81.9425 17.5415 82.0125 17.7006 82.1525 17.8279C82.3053 17.9425 82.528 17.9998 82.8208 17.9998H84.8066C85.4685 17.9998 86.0731 18.0889 86.6205 18.2671C87.1678 18.458 87.607 18.7699 87.938 19.2027C88.2689 19.6482 88.4344 20.2528 88.4344 21.0166V21.8185H86.9069ZM84.1001 15.0593C84.5202 15.0593 84.9084 14.9575 85.2648 14.7538C85.634 14.5501 85.9331 14.251 86.1622 13.8564C86.3914 13.4618 86.5059 12.9781 86.5059 12.4053C86.5059 11.8325 86.3914 11.3488 86.1622 10.9541C85.9458 10.5468 85.6531 10.2413 85.2839 10.0376C84.9148 9.82125 84.5202 9.71305 84.1001 9.71305C83.68 9.71305 83.2854 9.82125 82.9163 10.0376C82.5471 10.2413 82.248 10.5405 82.0189 10.9351C81.7898 11.3297 81.6752 11.8197 81.6752 12.4053C81.6752 12.9781 81.7898 13.4618 82.0189 13.8564C82.248 14.251 82.5471 14.5501 82.9163 14.7538C83.2854 14.9575 83.68 15.0593 84.1001 15.0593Z" fill="#BDBDBD"/>
</svg>
