<svg width="110" height="26" viewBox="0 0 110 26" fill="none" xmlns="http://www.w3.org/2000/svg">
<path d="M37.3858 5.64607V7.76548H27.8771V11.0878H35.6674V13.0736H27.8771V17.9998H25.3377V5.64607H37.3858ZM43.9396 18.2289C42.7431 18.2289 41.6866 18.038 40.7701 17.6561C39.8663 17.2742 39.1598 16.7205 38.6507 15.9949C38.1415 15.2566 37.8869 14.3528 37.8869 13.2836C37.8869 12.2143 38.1415 11.3106 38.6507 10.5723C39.1598 9.82125 39.8663 9.2548 40.7701 8.87293C41.6866 8.49105 42.7431 8.30011 43.9396 8.30011C45.1362 8.30011 46.18 8.49105 47.071 8.87293C47.9748 9.2548 48.6813 9.82125 49.1904 10.5723C49.6996 11.3106 49.9542 12.2143 49.9542 13.2836C49.9542 14.3528 49.6996 15.2566 49.1904 15.9949C48.6813 16.7205 47.9748 17.2742 47.071 17.6561C46.18 18.038 45.1362 18.2289 43.9396 18.2289ZM43.9396 16.3195C44.6016 16.3195 45.1935 16.2049 45.7154 15.9758C46.25 15.734 46.6701 15.3903 46.9756 14.9448C47.2811 14.4865 47.4338 13.9328 47.4338 13.2836C47.4338 12.6344 47.2811 12.0807 46.9756 11.6224C46.6701 11.1515 46.2564 10.795 45.7345 10.5532C45.2126 10.3113 44.6143 10.1904 43.9396 10.1904C43.2777 10.1904 42.6795 10.3113 42.1448 10.5532C41.6102 10.795 41.1838 11.1451 40.8655 11.6033C40.56 12.0616 40.4073 12.6217 40.4073 13.2836C40.4073 13.9328 40.56 14.4865 40.8655 14.9448C41.171 15.3903 41.5911 15.734 42.1257 15.9758C42.6604 16.2049 43.265 16.3195 43.9396 16.3195ZM57.3836 18.2289C56.1871 18.2289 55.1306 18.038 54.214 17.6561C53.3103 17.2742 52.6038 16.7205 52.0946 15.9949C51.5855 15.2566 51.3309 14.3528 51.3309 13.2836C51.3309 12.2143 51.5855 11.3106 52.0946 10.5723C52.6038 9.82125 53.3103 9.2548 54.214 8.87293C55.1306 8.49105 56.1871 8.30011 57.3836 8.30011C58.5802 8.30011 59.624 8.49105 60.515 8.87293C61.4188 9.2548 62.1252 9.82125 62.6344 10.5723C63.1436 11.3106 63.3982 12.2143 63.3982 13.2836C63.3982 14.3528 63.1436 15.2566 62.6344 15.9949C62.1252 16.7205 61.4188 17.2742 60.515 17.6561C59.624 18.038 58.5802 18.2289 57.3836 18.2289ZM57.3836 16.3195C58.0455 16.3195 58.6374 16.2049 59.1593 15.9758C59.694 15.734 60.114 15.3903 60.4195 14.9448C60.725 14.4865 60.8778 13.9328 60.8778 13.2836C60.8778 12.6344 60.725 12.0807 60.4195 11.6224C60.114 11.1515 59.7003 10.795 59.1784 10.5532C58.6565 10.3113 58.0583 10.1904 57.3836 10.1904C56.7217 10.1904 56.1234 10.3113 55.5888 10.5532C55.0542 10.795 54.6277 11.1451 54.3095 11.6033C54.004 12.0616 53.8513 12.6217 53.8513 13.2836C53.8513 13.9328 54.004 14.4865 54.3095 14.9448C54.615 15.3903 55.0351 15.734 55.5697 15.9758C56.1043 16.2049 56.709 16.3195 57.3836 16.3195ZM64.4343 8.51014H71.8045V10.4386H64.4343V8.51014ZM66.8783 5.91339H69.3605V17.9998H66.8783V5.91339ZM80.6945 18.2098C79.8543 18.2098 79.1351 18.0634 78.5369 17.7706C77.9386 17.4651 77.4549 17.0705 77.0857 16.5868C76.7166 16.0904 76.4429 15.5558 76.2647 14.9829C76.0865 14.3974 75.9974 13.8246 75.9974 13.2645C75.9974 12.5644 76.0801 11.9152 76.2456 11.3169C76.4238 10.7187 76.6975 10.1968 77.0666 9.75124C77.4358 9.29299 77.9195 8.93657 78.5178 8.68199C79.116 8.4274 79.8416 8.30011 80.6945 8.30011C81.6746 8.30011 82.5402 8.51014 83.2912 8.93021C84.055 9.33754 84.6533 9.91036 85.086 10.6486C85.5316 11.3869 85.7543 12.2589 85.7543 13.2645C85.7543 14.2446 85.5316 15.1102 85.086 15.8613C84.6405 16.5996 84.0359 17.1787 83.2721 17.5988C82.5084 18.0061 81.6492 18.2098 80.6945 18.2098ZM79.8925 16.3004C80.5672 16.3004 81.1527 16.1731 81.6492 15.9185C82.1456 15.664 82.5275 15.3139 82.7948 14.8684C83.0748 14.4101 83.2149 13.8755 83.2149 13.2645C83.2149 12.348 82.9221 11.6097 82.3365 11.0496C81.7637 10.4895 80.9491 10.2095 79.8925 10.2095C79.1542 10.2095 78.5114 10.3304 77.9641 10.5723C77.4167 10.8141 76.9903 11.1642 76.6848 11.6224C76.392 12.068 76.2456 12.6153 76.2456 13.2645C76.2456 13.8628 76.392 14.391 76.6848 14.8493C76.9775 15.3075 77.3976 15.664 77.945 15.9185C78.4923 16.1731 79.1415 16.3004 79.8925 16.3004ZM76.2456 4.69138V15.5558C76.2456 15.9631 76.2265 16.4022 76.1883 16.8732C76.1501 17.3315 76.112 17.707 76.0738 17.9998H73.7634V4.69138H76.2456ZM92.2107 18.2098C91.2688 18.2098 90.4095 18.0061 89.6331 17.5988C88.8693 17.1787 88.2583 16.5996 87.8 15.8613C87.3545 15.1102 87.1318 14.2446 87.1318 13.2645C87.1318 12.2589 87.3609 11.3869 87.8191 10.6486C88.2774 9.91036 88.8948 9.33754 89.6712 8.93021C90.4605 8.51014 91.3515 8.30011 92.3444 8.30011C93.4391 8.30011 94.3174 8.52287 94.9793 8.96839C95.654 9.40119 96.144 9.99309 96.4495 10.7441C96.755 11.4951 96.9078 12.3353 96.9078 13.2645C96.9078 13.8246 96.8187 14.3974 96.6405 14.9829C96.4623 15.5558 96.1886 16.0904 95.8194 16.5868C95.4503 17.0705 94.9666 17.4651 94.3683 17.7706C93.77 18.0634 93.0508 18.2098 92.2107 18.2098ZM93.0127 16.3004C93.7637 16.3004 94.4129 16.1731 94.9602 15.9185C95.5076 15.664 95.9276 15.3075 96.2204 14.8493C96.5132 14.391 96.6596 13.8628 96.6596 13.2645C96.6596 12.6153 96.5068 12.068 96.2013 11.6224C95.9086 11.1642 95.4885 10.8205 94.9411 10.5914C94.4065 10.3495 93.7637 10.2286 93.0127 10.2286C91.9561 10.2286 91.1351 10.5086 90.5496 11.0687C89.964 11.6161 89.6712 12.348 89.6712 13.2645C89.6712 13.8755 89.8113 14.4101 90.0913 14.8684C90.3713 15.3139 90.7596 15.664 91.256 15.9185C91.7652 16.1731 92.3507 16.3004 93.0127 16.3004ZM96.6596 8.51014H99.1418V17.9998H96.8314C96.8314 17.9998 96.8123 17.8788 96.7741 17.637C96.7487 17.3824 96.7232 17.0642 96.6978 16.6823C96.6723 16.3004 96.6596 15.9249 96.6596 15.5558V8.51014ZM101.579 4.69138H104.061V17.9998H101.579V4.69138ZM106.763 4.69138H109.245V17.9998H106.763V4.69138Z" fill="#A8C956"/>
<path d="M8.35354 3.57987C3.74239 3.57987 0 7.32226 0 11.9334C0 16.5446 3.74239 20.287 8.35354 20.287C12.9647 20.287 16.7071 16.5446 16.7071 11.9334C16.7071 7.32226 12.9647 3.57987 8.35354 3.57987ZM9.18889 6.33654L10.3166 5.54295C11.837 6.01075 13.1318 7.01318 13.9755 8.33304L13.6497 9.45241L12.522 9.83667L9.18889 7.50604V6.33654ZM6.39046 5.54295L7.51819 6.33654V7.50604L4.18512 9.83667L3.0574 9.45241L2.73161 8.33304C3.57531 7.02153 4.87011 6.01911 6.39046 5.54295ZM4.2436 16.2021L3.29129 16.2856C2.28052 15.1161 1.67071 13.5958 1.67071 11.9334C1.67071 11.8332 1.67906 11.7413 1.68742 11.641L2.52277 11.0312L3.67556 11.4322L4.89517 15.0576L4.2436 16.2021ZM10.4419 18.2737C9.78199 18.4909 9.0803 18.6162 8.35354 18.6162C7.62678 18.6162 6.92508 18.4909 6.26515 18.2737L5.68876 17.0291L6.22339 16.1102H10.492L11.0267 17.0374L10.4419 18.2737ZM10.2498 14.4395H6.45729L5.32956 11.0814L8.35354 8.95955L11.3859 11.0814L10.2498 14.4395ZM13.4158 16.2856L12.4635 16.2021L11.8036 15.0576L13.0232 11.4322L14.1843 11.0396L15.0197 11.6494C15.028 11.7413 15.0364 11.8332 15.0364 11.9334C15.0364 13.5958 14.4266 15.1161 13.4158 16.2856Z" fill="#A8C956"/>
</svg>
