<svg width="57" height="26" viewBox="0 0 57 26" fill="none" xmlns="http://www.w3.org/2000/svg">
<path d="M26.3927 18.1905C25.489 18.1905 24.6743 18.0377 23.9487 17.7322C23.2359 17.4267 22.6249 17.0003 22.1157 16.4529C21.6066 15.8928 21.2183 15.2246 20.951 14.4481C20.6837 13.6716 20.55 12.8187 20.55 11.8895C20.55 10.9475 20.6964 10.082 20.9892 9.29275C21.282 8.49081 21.6957 7.80344 22.2303 7.23062C22.7649 6.64508 23.395 6.19319 24.1206 5.87496C24.8589 5.55673 25.6672 5.39762 26.5455 5.39762C27.5002 5.39762 28.3467 5.58219 29.085 5.95134C29.8233 6.30775 30.4215 6.81692 30.8798 7.47884C31.338 8.12803 31.6117 8.89178 31.7008 9.7701H30.4024C30.237 9.1591 29.9696 8.6372 29.6005 8.20441C29.2313 7.75888 28.7858 7.42156 28.2639 7.19243C27.7548 6.95058 27.1819 6.82965 26.5455 6.82965C25.6672 6.82965 24.8907 7.05241 24.216 7.49793C23.5541 7.93073 23.0322 8.529 22.6503 9.29275C22.2685 10.0565 22.0775 10.9221 22.0775 11.8895C22.0775 12.8569 22.2494 13.7098 22.5931 14.4481C22.9368 15.1736 23.4332 15.7401 24.0824 16.1474C24.7316 16.5548 25.5017 16.7584 26.3927 16.7584C27.0801 16.7584 27.6784 16.6248 28.1875 16.3575C28.7094 16.0901 29.1295 15.7019 29.4477 15.1927C29.766 14.6708 29.9824 14.0344 30.0969 13.2834H31.0325C30.8289 14.9254 30.3133 16.1538 29.4859 16.9685C28.6585 17.7831 27.6275 18.1905 26.3927 18.1905ZM30.727 17.9995C30.727 17.5795 30.7334 17.1085 30.7461 16.5866C30.7716 16.052 30.8034 15.511 30.8416 14.9636C30.8798 14.4163 30.9116 13.9262 30.9371 13.4934H26.7364V12.0614H32.2163V17.9995H30.727ZM38.7408 18.1905C37.9261 18.1905 37.1623 17.9932 36.4495 17.5986C35.7367 17.204 35.1575 16.6375 34.712 15.8992C34.2792 15.1482 34.0628 14.2635 34.0628 13.2452C34.0628 12.2268 34.2792 11.3485 34.712 10.6102C35.1575 9.8592 35.7367 9.28002 36.4495 8.87269C37.1623 8.46535 37.9261 8.26169 38.7408 8.26169C39.5554 8.26169 40.3128 8.46535 41.0129 8.87269C41.7258 9.28002 42.2986 9.8592 42.7314 10.6102C43.1642 11.3485 43.3805 12.2268 43.3805 13.2452C43.3805 14.2635 43.1642 15.1482 42.7314 15.8992C42.2986 16.6375 41.7258 17.204 41.0129 17.5986C40.3128 17.9932 39.5554 18.1905 38.7408 18.1905ZM38.7408 16.7584C39.2754 16.7584 39.7782 16.6248 40.2492 16.3575C40.7201 16.0901 41.102 15.6955 41.3948 15.1736C41.7003 14.639 41.853 13.9962 41.853 13.2452C41.853 12.4941 41.7003 11.8577 41.3948 11.3358C41.102 10.8012 40.7201 10.3938 40.2492 10.1138C39.7782 9.83374 39.2754 9.69372 38.7408 9.69372C38.2061 9.69372 37.697 9.83374 37.2132 10.1138C36.7423 10.3811 36.354 10.7821 36.0485 11.3167C35.743 11.8386 35.5903 12.4814 35.5903 13.2452C35.5903 13.9962 35.7367 14.639 36.0294 15.1736C36.3349 15.6955 36.7295 16.0901 37.2132 16.3575C37.697 16.6248 38.2061 16.7584 38.7408 16.7584ZM45.51 4.63386H47.0375V17.9995H45.51V4.63386ZM48.6783 8.45263H54.2919V9.88466H48.6783V8.45263ZM53.6236 4.63386H54.5019V6.16137H53.6236C53.3054 6.14864 53.0126 6.19319 52.7453 6.29502C52.4907 6.39686 52.2871 6.57507 52.1343 6.82965C51.9816 7.07151 51.9052 7.42156 51.9052 7.87981V17.9995H50.3777V7.87981C50.3777 7.11606 50.5113 6.49869 50.7787 6.02771C51.0587 5.544 51.4406 5.19395 51.9243 4.97755C52.4207 4.74843 52.9872 4.63386 53.6236 4.63386Z" fill="#BDBDBD"/>
<path d="M6.46773 16.7066C9.76653 16.7066 12.4345 14.0386 12.4345 10.7398C12.4345 7.44103 9.76653 4.77301 6.46773 4.77301C3.16893 4.77301 0.500916 7.44103 0.500916 10.7398C0.500916 14.0386 3.16893 16.7066 6.46773 16.7066ZM6.46773 6.47781C8.82036 6.47781 10.7297 8.3872 10.7297 10.7398C10.7297 13.0925 8.82036 15.0018 6.46773 15.0018C4.1151 15.0018 2.20572 13.0925 2.20572 10.7398C2.20572 8.3872 4.1151 6.47781 6.46773 6.47781Z" fill="#BDBDBD"/>
<path d="M4.76292 10.7402C5.23369 10.7402 5.61533 10.3585 5.61533 9.88775C5.61533 9.41698 5.23369 9.03535 4.76292 9.03535C4.29216 9.03535 3.91052 9.41698 3.91052 9.88775C3.91052 10.3585 4.29216 10.7402 4.76292 10.7402Z" fill="#BDBDBD"/>
<path d="M8.17351 10.7402C8.64428 10.7402 9.02591 10.3585 9.02591 9.88775C9.02591 9.41698 8.64428 9.03535 8.17351 9.03535C7.70274 9.03535 7.32111 9.41698 7.32111 9.88775C7.32111 10.3585 7.70274 10.7402 8.17351 10.7402Z" fill="#BDBDBD"/>
<path d="M6.46776 9.03484C6.93853 9.03484 7.32016 8.65321 7.32016 8.18244C7.32016 7.71167 6.93853 7.33004 6.46776 7.33004C5.99699 7.33004 5.61536 7.71167 5.61536 8.18244C5.61536 8.65321 5.99699 9.03484 6.46776 9.03484Z" fill="#BDBDBD"/>
<path d="M2.20667 19.2637H3.91147C4.84911 19.2637 5.61627 20.0309 5.61627 20.9685V21.8209H7.32108V20.9685C7.32108 20.0309 8.08824 19.2637 9.02588 19.2637H10.7307V17.5589H2.20667V19.2637Z" fill="#BDBDBD"/>
</svg>
