<svg width="67" height="63" viewBox="0 0 67 63" fill="none" xmlns="http://www.w3.org/2000/svg">
<rect x="0.878906" y="0.91687" width="64.9346" height="59.7347" rx="11.5" fill="#213663" stroke="#304E8D"/>
<path d="M59.0594 34.3999L57.8219 16.2999L49.2625 21.3999C45.0344 20.6999 43.9 20.6999 40.6 19.0999C38.6406 18.1999 36.1656 18.7999 34.9281 19.4999C33.0719 17.5999 21.0062 20.3999 19.6656 20.9999C16.0562 19.9999 10.6937 15.8999 10.6937 15.8999L8.94061 36.3999L11.3125 36.9999C11.5187 37.6999 12.1375 39.3999 12.1375 39.3999C9.86874 42.1999 12.55 45.4999 15.1281 44.3999C13.9937 47.1999 16.9844 49.7999 19.3562 47.9999C19.0469 50.5999 21.8312 52.4999 23.8937 50.6999C22.9656 53.7999 26.575 56.0999 28.7406 53.5999C30.2875 54.5999 31.7312 55.3999 32.9687 55.7999C35.1344 56.6999 37.5062 54.6999 37.0937 52.1999C39.5687 54.9999 43.2812 52.2999 42.4562 49.1999C45.2406 51.2999 48.6437 47.7999 46.8906 44.6999C49.9844 46.3999 52.6656 41.7999 49.675 38.7999L59.0594 34.3999Z" fill="#8A6859"/>
<path d="M15.3344 37.2999C16.8812 37.9999 17.9125 40.2999 16.2625 42.2999L15.5406 43.0999C14.7156 44.0999 13.8906 44.3999 13.0656 44.3999C13.6844 44.6999 14.4062 44.6999 15.1281 44.3999C15.2312 44.0999 15.4375 43.6999 15.7469 43.3999L16.4687 42.5999C16.8812 42.0999 17.3969 41.6999 17.8094 41.4999C18.6344 39.3999 17.1906 37.3999 15.3344 37.2999ZM27.1937 47.1999C28.8437 47.5999 30.0812 49.6999 28.8437 51.9999L28.225 52.8999C27.6062 53.9999 26.7812 54.4999 25.9562 54.5999C27.0906 54.8999 28.3281 54.4999 29.1531 52.9999L29.7719 52.0999C31.2156 49.2999 29.2562 46.9999 27.1937 47.1999ZM19.8719 46.3999L21.5219 43.8999C21.4187 42.4999 20.1812 41.2999 18.9437 41.1999C20.4906 41.8999 21.5219 44.1999 19.8719 46.1999L19.15 46.9999C18.325 47.9999 17.5 48.2999 16.5719 48.2999C17.3969 48.6999 18.325 48.5999 19.2531 47.9999C19.3562 47.4999 19.5625 46.8999 19.8719 46.3999ZM24.3062 41.8999C25.9562 42.3999 27.0906 44.5999 25.6469 46.7999L23.6875 49.7999C22.9656 50.8999 22.1406 51.2999 21.3156 51.2999C22.3469 51.5999 23.6875 51.2999 24.6156 49.8999L26.575 46.8999C28.225 44.2999 26.3687 41.7999 24.3062 41.8999ZM38.0219 44.3999C38.125 44.3999 39.3625 44.1999 39.775 44.1999C38.2281 42.6999 35.7531 43.8999 34.3094 43.0999C35.3406 44.7999 37.5062 44.3999 37.7125 44.3999L40.1875 47.4999C42.25 49.9999 40.6 52.8999 38.4344 53.1999C40.7031 53.8999 42.9719 51.5999 42.25 49.0999C42.1469 48.9999 38.0219 44.3999 38.0219 44.3999ZM40.4969 38.5999C40.4969 38.5999 42.0437 38.2999 43.3844 38.2999C41.8375 37.0999 39.4656 38.1999 37.9187 37.1999C38.5375 38.4999 39.8781 38.4999 40.2906 38.4999L45.0344 43.7999C47.2 46.1999 45.6531 49.0999 43.4875 49.5999C45.9625 50.2999 48.3344 47.1999 46.7875 44.4999C45.7562 44.1999 40.4969 38.5999 40.4969 38.5999Z" fill="#705041"/>
<path d="M37.1969 50.0999C35.65 48.8999 33.4844 49.7999 32.5563 49.1999C33.0719 50.5999 35.0312 50.2999 35.1344 50.2999C36.8875 52.8999 35.0312 55.5999 32.8656 55.7999C35.0312 56.6999 37.4031 54.6999 36.9906 52.1999C36.8875 52.0999 35.4438 50.2999 35.4438 50.2999C35.65 50.1999 36.7844 50.0999 37.1969 50.0999ZM57.925 32.6999C57.925 32.6999 56.1719 36.1999 49.3656 38.0999C48.4375 36.9999 46.4781 34.7999 44.2094 32.8999C45.6531 32.5999 46.375 31.4999 47.5094 31.2999C47.0969 30.8999 45.6531 31.0999 44.5188 31.4999C42.4563 32.1999 37.7125 28.9999 37.7125 28.9999L33.7937 29.4999C31.0094 32.0999 25.0281 33.4999 24.7188 29.4999C24.5125 26.6999 30.8031 24.7999 32.7625 22.9999C35.2375 20.6999 37.4031 17.7999 41.425 19.7999C44.725 21.3999 46.0656 21.2999 50.6031 22.0999C52.15 22.3999 53.1813 23.0999 54.3156 24.5999C53.3875 22.4999 52.0469 21.5999 50.3969 21.2999L57.6156 17.9999L57.7188 16.2999L49.1594 20.9999C45.2406 20.3999 43.7969 20.3999 40.6 18.8999C38.5375 17.8999 36.8875 18.1999 35.5469 18.9999C33.0719 17.5999 31.6281 17.8999 30.7 18.0999C27.8125 18.9999 23.1719 19.0999 19.0469 20.6999C19.7688 20.8999 20.4906 21.0999 21.0062 21.0999C25.0281 19.8999 29.2562 19.9999 31.2156 19.2999C31.8344 19.0999 33.0719 19.0999 34.4125 19.7999C33.5875 20.4999 32.8656 21.2999 32.0406 22.0999C30.0813 23.8999 24.1 26.4999 24.5125 29.7999C24.7187 31.3999 26.9875 35.5999 34.5156 30.8999L37.7125 30.4999C37.7125 30.4999 43.5906 33.1999 49.0562 39.3999C51.2219 41.7999 49.8812 44.3999 47.7156 44.9999C50.5 45.4999 52.8719 41.6999 50.1906 39.0999L56.6875 35.6999L57.925 32.6999Z" fill="#705041"/>
<path d="M56.0688 17.2999L59.4719 34.3999L56.6875 35.5999C55.2438 31.8999 53.0781 22.9999 53.5938 18.6999L56.0688 17.2999Z" fill="#3B946F"/>
<path d="M12.4469 38.9999C11.9313 37.7999 11.6219 36.1999 11.6219 36.1999L9.04377 34.4999L8.83752 36.3999L11.1063 36.9999C11.4156 37.9999 11.725 38.7999 12.1375 39.3999L12.4469 38.9999Z" fill="#705041"/>
<path d="M7.29065 36.0999L12.8594 17.3999L15.4375 19.0999C15.85 21.8999 11.1063 34.6999 9.35315 36.5999L7.29065 36.0999Z" fill="#3B946F"/>
<path d="M55.9656 17.1999C55.1406 17.6999 58.1312 34.9999 59.3687 34.4999C63.2875 32.7999 65.0406 32.2999 65.0406 32.2999V11.6999C64.9375 11.6999 62.5656 13.3999 55.9656 17.1999ZM3.0625 9.99988V35.4999C3.0625 35.4999 4.91875 35.7999 7.29063 36.2999C8.63125 36.5999 13.4781 17.7999 13.1687 17.4999C9.6625 15.1999 3.0625 9.99988 3.0625 9.99988Z" fill="#47B892"/>
</svg>
