<svg width="23" height="26" viewBox="0 0 23 26" fill="none" xmlns="http://www.w3.org/2000/svg">
<path fill-rule="evenodd" clip-rule="evenodd" d="M15.1838 23.7742C17.3627 23.1511 19.6438 22.8368 21.8567 22.5489C22.3334 22.4885 22.7759 22.8254 22.8099 23.3C22.878 23.7749 22.5374 24.2093 22.0948 24.2696C19.95 24.5468 17.7373 24.8434 15.6606 25.4433C15.218 25.5734 14.7412 25.3056 14.605 24.8448C14.4688 24.3845 14.7412 23.9047 15.1838 23.7742Z" fill="#A8C956"/>
<path fill-rule="evenodd" clip-rule="evenodd" d="M8.57905 14.9403C12.0856 11.2937 16.0348 8.11651 19.4733 4.37211C19.7797 4.0224 20.3244 4.00367 20.6648 4.33013C21.0053 4.65694 21.0392 5.20647 20.6987 5.55617C17.2602 9.31134 13.3111 12.4989 9.80451 16.1562C9.46407 16.4976 8.91949 16.5025 8.57905 16.1667C8.27265 15.8312 8.2386 15.2816 8.57905 14.9403Z" fill="#A8C956"/>
<path fill-rule="evenodd" clip-rule="evenodd" d="M2.00883 0.914422C1.9067 3.00155 1.80477 5.08867 1.70263 7.17614C1.70263 7.65421 1.2939 8.02334 0.817282 8.0001C0.340661 7.97651 0.000417709 7.56956 0.000417709 7.09115C0.102551 5.00055 0.204484 2.9103 0.306617 0.820056C0.340661 0.341988 0.74926 -0.0247163 1.22588 0.00130335C1.66846 0.027323 2.04288 0.4367 2.00883 0.914422Z" fill="#A8C956"/>
</svg>
