<svg width="237" height="173" viewBox="0 0 237 173" fill="none" xmlns="http://www.w3.org/2000/svg">
<path fill-rule="evenodd" clip-rule="evenodd" d="M118.416 37.4645C92.1673 28.0073 62.9408 22.6365 35.6588 28.9181C25.7319 31.2027 16.8755 35.595 7.76929 40.0096C7.13031 40.3182 6.85384 41.0946 7.15355 41.7417C7.45661 42.3883 8.22151 42.6611 8.86332 42.3486C17.7941 38.0205 26.4715 33.6911 36.2065 31.4508C63.1013 25.2582 91.9088 30.6401 117.767 39.9934L117.653 40.4088C116.406 44.9157 118.457 50.8802 122.441 56.8495C128.151 65.4069 137.718 74.058 145.824 78.3895C149.466 80.3351 152.841 81.404 155.483 81.3206C157.543 81.2569 159.211 80.5227 160.372 79.0876C162.846 76.0278 162.097 71.5954 159.08 66.7963C152.775 56.7576 136.807 44.7523 128.607 41.3895C126.046 40.3404 123.448 39.3213 120.819 38.3451C121.017 37.5466 121.215 36.7654 121.44 36.0143C122.089 33.8761 122.988 31.9539 125.037 30.4095C128.233 28.006 132.341 27.0268 136.663 26.8328C143.409 26.5348 150.676 28.1722 156.076 29.7116C186.146 38.2869 203.398 58.6901 214.195 80.2058C225.094 101.937 229.448 124.815 233.669 138.049C233.884 138.73 234.608 139.096 235.283 138.872C235.958 138.647 236.33 137.911 236.111 137.23C231.864 123.911 227.459 100.888 216.483 79.0139C205.405 56.9242 187.662 36.0148 156.795 27.2098C151.17 25.6058 143.599 23.9266 136.575 24.2376C131.712 24.4551 127.112 25.6262 123.516 28.3316C120.29 30.7606 119.326 33.906 118.416 37.4645ZM120.181 40.8825L120.122 41.0889C119.032 45.0284 121.088 50.1627 124.573 55.3818C130.059 63.6047 139.247 71.9255 147.04 76.0887C149.712 77.5178 152.205 78.4533 154.31 78.6795C156.047 78.8639 157.489 78.5699 158.389 77.4527C159.245 76.4014 159.456 75.1066 159.23 73.6738C158.967 71.991 158.129 70.1436 156.912 68.2041C150.852 58.5585 135.505 47.0286 127.625 43.7983C125.177 42.7969 122.695 41.8216 120.181 40.8825Z" fill="#A8C956"/>
<path fill-rule="evenodd" clip-rule="evenodd" d="M5.1502 43.7416C5.18012 43.1732 5.45017 42.4215 5.75009 41.6166C6.46231 39.6987 7.56907 37.6007 8.05116 36.5906C8.3599 35.94 8.08963 35.1667 7.45287 34.8596C6.81277 34.553 6.04575 34.8301 5.73701 35.4807C5.14791 36.7187 3.67815 39.5174 2.9951 41.7524C2.62956 42.9514 2.50586 44.0257 2.67411 44.7564C2.95849 46.0012 4.05996 46.6323 6.00935 46.275C8.31508 45.8508 12.441 43.9971 16.2451 44.8363C16.9347 44.9898 17.6253 44.5414 17.7799 43.8426C17.9373 43.1399 17.5044 42.4477 16.8115 42.2947C13.1846 41.4967 9.27924 42.776 6.62672 43.473C6.12247 43.6048 5.51284 43.6945 5.1502 43.7416Z" fill="#A8C956"/>
</svg>
