<svg width="174" height="24" viewBox="0 0 174 24" fill="none" xmlns="http://www.w3.org/2000/svg">
<g opacity="0.8" clip-path="url(#clip0_216_247)">
<path d="M15.2024 9.1394C17.1036 9.1394 18.6733 9.32602 19.9117 9.69926C21.1501 10.0725 22.1216 10.5815 22.8262 11.2261C23.4958 11.8231 24.0077 12.5818 24.3149 13.4327C24.6043 14.265 24.7504 15.1421 24.7467 16.0251C24.7505 16.9129 24.5864 17.7931 24.2633 18.6175C23.9169 19.475 23.3692 20.2327 22.6683 20.8241C21.9304 21.4699 20.9525 21.9788 19.7345 22.351C18.5165 22.7231 17.0064 22.9097 15.2041 22.9108H0V9.1394H15.2024ZM5.278 18.6077H14.9914C15.6636 18.617 16.3351 18.5621 16.9972 18.4435C17.4628 18.3682 17.9104 18.2044 18.3167 17.9608C18.6281 17.7683 18.8778 17.4877 19.0353 17.153C19.182 16.7952 19.2576 16.4113 19.2576 16.0235C19.2576 15.6357 19.182 15.2517 19.0353 14.8939C18.8773 14.5596 18.6278 14.279 18.3167 14.0861C17.9101 13.8432 17.4626 13.6795 16.9972 13.6035C16.3351 13.4849 15.6636 13.4299 14.9914 13.4393H5.278V18.6077Z" fill="white"/>
<path d="M54.0528 9.1394V18.826H66.3633V22.9141H48.7732V9.1394H54.0528Z" fill="white"/>
<path d="M86.4442 15.0647V9.15418H91.7222V16.0251C91.7222 17.2455 91.5004 18.282 91.0568 19.1347C90.6202 19.981 89.9862 20.7049 89.2104 21.2427C88.3765 21.8173 87.4563 22.2499 86.4861 22.5233C85.4053 22.8348 84.2995 23.0474 83.1817 23.1587C81.9922 23.2809 80.7973 23.3418 79.6018 23.341C78.3204 23.341 77.082 23.2802 75.8866 23.1587C74.761 23.0501 73.6474 22.8374 72.5596 22.5233C71.6047 22.2545 70.7018 21.8214 69.89 21.2427C69.1354 20.6987 68.5226 19.975 68.1049 19.1347C67.6753 18.2809 67.4604 17.2444 67.4604 16.0251V9.1394H72.7401V15.0647C72.7401 16.2139 73.0145 17.0895 73.5633 17.6915C74.1122 18.2935 74.8968 18.7062 75.9172 18.9295C77.131 19.168 78.3658 19.278 79.6018 19.2578C80.8207 19.2758 82.0381 19.1658 83.2348 18.9295C84.2606 18.7105 85.0522 18.2979 85.6096 17.6915C86.1671 17.0852 86.4452 16.2095 86.4442 15.0647Z" fill="white"/>
<path d="M92.8209 9.1394H98.0989V22.9108H92.8209V9.1394ZM104.078 16.1335V14.9284L116.261 22.9108H108.404L98.057 15.595L107.601 9.1394H115.119L104.078 16.1335Z" fill="white"/>
<path d="M123.819 22.9108L116.259 9.1394H122.214L128.591 21.9422L126.585 21.9865L132.561 9.1394H138.937L144.913 21.9865L142.906 21.9422L149.284 9.1394H155.153L147.679 22.9108H140.542L134.713 11.3131H136.783L130.954 22.9108H123.819Z" fill="white"/>
<path d="M161.965 6.63238C163.55 6.63238 164.836 5.3225 164.836 3.70669C164.836 2.09088 163.55 0.781006 161.965 0.781006C160.379 0.781006 159.094 2.09088 159.094 3.70669C159.094 5.3225 160.379 6.63238 161.965 6.63238Z" fill="#A6C855"/>
<path d="M35.6393 6.63238C37.2249 6.63238 38.5103 5.3225 38.5103 3.70669C38.5103 2.09088 37.2249 0.781006 35.6393 0.781006C34.0537 0.781006 32.7683 2.09088 32.7683 3.70669C32.7683 5.3225 34.0537 6.63238 35.6393 6.63238Z" fill="#A6C855"/>
<path d="M38.5313 9.1394H32.6621L23.6028 22.9108H29.4108L30.7255 20.8241L33.4708 16.4668L35.6136 13.0666L37.8853 16.6408L38.0915 16.9659L38.4911 17.5963L40.542 20.8241L41.868 22.9108H47.6744L38.5313 9.1394Z" fill="white"/>
<path d="M164.857 9.1394H158.988L149.929 22.9108H155.735L157.051 20.8241L159.797 16.4668L161.94 13.0666L164.21 16.6408L164.417 16.9659L164.817 17.5963L166.868 20.8241L168.194 22.9108H174L164.857 9.1394Z" fill="white"/>
</g>
<defs>
<clipPath id="clip0_216_247">
<rect width="174" height="22.56" fill="white" transform="translate(0 0.781006)"/>
</clipPath>
</defs>
</svg>
