<svg width="67" height="61" viewBox="0 0 67 61" fill="none" xmlns="http://www.w3.org/2000/svg">
<rect x="1.03503" y="0.569153" width="64.9346" height="59.7347" rx="11.5" fill="#213663" stroke="#304E8D"/>
<g clip-path="url(#clip0_298_531)">
<path d="M48.4374 39.7779C48.4374 47.7186 42.0061 47.7186 33.9999 47.7186C25.9936 47.7186 19.5624 47.7186 19.5624 39.7779C19.5624 31.8373 26.0593 18.8436 33.9999 18.8436C41.9405 18.8436 48.4374 31.7717 48.4374 39.7779Z" fill="#DBB471"/>
<path opacity="0.5" d="M48.4376 39.7777C48.4376 37.0871 47.7157 33.8058 46.4032 30.6558C46.6657 32.6902 46.1407 36.2996 39.9063 37.6777C31.0469 39.5808 35.6407 42.0746 32.1626 42.4027C29.2094 42.6652 21.3344 41.4839 19.7594 37.0214C19.6282 38.0058 19.4969 38.9246 19.4969 39.8433C19.5626 47.7183 26.0594 47.7183 34.0001 47.7183C41.9407 47.7183 48.4376 47.7183 48.4376 39.7777Z" fill="#89664C"/>
<path d="M37.8714 35.9718C37.6089 34.6593 36.4933 34.2655 35.312 34.1999V32.3624C35.6402 32.4937 36.0339 32.6905 36.2964 32.8874C36.8214 33.2155 37.3464 32.3624 36.8214 32.0343C36.362 31.7718 35.837 31.5093 35.312 31.3124V29.1468C35.312 28.4905 34.3277 28.4905 34.3277 29.1468V31.0499C33.8027 30.9843 33.2777 30.9843 32.7527 31.0499C32.687 30.5905 32.5558 30.1312 32.4245 29.6718C32.2933 29.0155 31.3089 29.278 31.5058 29.9343C31.637 30.3937 31.7027 30.853 31.8339 31.3124C31.7683 31.3124 31.7683 31.3124 31.7027 31.378C30.3902 31.903 29.537 33.2155 30.5214 34.4624C30.9808 35.053 31.5714 35.2499 32.2276 35.3812C32.2933 36.2343 32.2933 37.0874 32.2933 37.9405C31.8339 37.678 31.4402 37.2843 31.112 36.9562C30.6527 36.4968 29.9964 37.2187 30.3902 37.678C30.9808 38.3343 31.637 38.7937 32.2933 39.1218C32.2933 39.8437 32.3589 40.5655 32.4245 41.2874C32.4902 41.9437 33.4745 41.9437 33.4089 41.2874C33.3433 40.6312 33.2776 40.0405 33.2776 39.3843C33.6714 39.4499 34.0652 39.4499 34.4589 39.4499C34.5245 40.1062 34.5902 40.7624 34.6558 41.4843C34.7214 42.1405 35.7058 42.1405 35.6402 41.4843C35.5745 40.7624 35.5089 40.0405 35.4433 39.253C36.887 38.728 38.1995 37.6124 37.8714 35.9718ZM34.3277 32.0343V34.1999C33.9995 34.1999 33.737 34.2655 33.4745 34.2655H33.1464L32.9495 31.903C33.4089 31.903 33.8683 31.9687 34.3277 32.0343ZM31.9651 34.1343C31.7026 34.0687 31.4402 33.8718 31.1777 33.6749C30.587 33.0843 31.4402 32.5593 31.9651 32.2968C32.0308 32.953 32.0964 33.5437 32.162 34.1999C32.0964 34.1999 32.0308 34.1999 31.9651 34.1343ZM34.1308 38.3343C33.8027 38.3999 33.5401 38.3343 33.2776 38.2687C33.212 37.2843 33.212 36.2999 33.212 35.2499C33.6058 35.2499 33.9995 35.1843 34.3933 35.1843C34.3933 36.2343 34.4589 37.2187 34.4589 38.2687C34.3277 38.3343 34.262 38.3343 34.1308 38.3343ZM36.2964 37.6124C36.0339 37.8093 35.7058 37.9405 35.4433 38.0718C35.3777 37.0874 35.3776 36.1687 35.3776 35.1843H35.7058C36.9526 35.4468 37.2808 36.8249 36.2964 37.6124Z" fill="#89664C"/>
<path d="M35.311 45.0936H33.8016V47.7186L39.9048 50.9998L53.686 46.7342V44.4373L48.6329 41.4842L35.311 45.0936Z" fill="#699635"/>
<path d="M33.9999 43.5842C33.9999 43.5842 35.5749 46.1436 40.0374 48.3748C40.0374 48.3748 46.9936 48.0467 53.6874 43.5842C53.6874 43.5842 49.8155 41.6811 48.6999 39.1873C48.6999 39.1873 46.0749 42.8623 33.9999 43.5842Z" fill="#83BF4F"/>
<path d="M31.0461 45.0276L32.4898 44.962L32.6867 47.3901L26.9773 50.9995L13.2617 48.0464L13.0648 45.8807L17.7242 42.6651L31.0461 45.0276Z" fill="#699635"/>
<path d="M32.1624 43.5186C32.1624 43.5186 30.7843 46.0779 26.6499 48.5061C26.6499 48.5061 19.8905 48.7029 12.9999 45.0936C12.9999 45.0936 16.6749 42.9936 17.528 40.4998C17.528 40.4998 20.4155 43.7811 32.1624 43.5186Z" fill="#83BF4F"/>
<path d="M28.8825 44.2402C28.8825 44.2402 28.6856 44.7652 29.6044 44.8309L27.1762 46.8652C27.1762 46.8652 25.7325 46.734 25.4044 47.7184C25.4044 47.7184 19.4981 47.0621 15.6919 45.3559C15.6919 45.3559 16.4794 44.7652 15.495 44.3715C15.495 44.3715 16.6106 43.584 16.8731 42.8621C16.8731 42.8621 17.9231 42.9934 18.2512 42.2059C18.3825 42.1402 22.32 44.5027 28.8825 44.2402V44.2402Z" stroke="#699635" stroke-width="0.65625" stroke-miterlimit="10"/>
<path d="M18.7756 45.1592C19.4642 45.1592 20.0224 44.7772 20.0224 44.3061C20.0224 43.8349 19.4642 43.4529 18.7756 43.4529C18.0869 43.4529 17.5287 43.8349 17.5287 44.3061C17.5287 44.7772 18.0869 45.1592 18.7756 45.1592Z" fill="#699635"/>
<path d="M25.47 43.2567C25.47 43.2567 23.9606 45.2255 20.6794 47.9161L20.8762 49.688L18.5794 49.163L18.4481 47.2599C18.4481 47.2599 21.795 44.1755 22.5169 42.6661C22.4512 42.6661 23.6325 43.0599 25.47 43.2567ZM40.6294 42.7974C40.6294 42.7974 41.22 44.3724 45.6825 47.2599V49.163L48.2419 48.3755V46.4067C48.2419 46.4067 45.1575 44.2411 43.32 42.0755L40.6294 42.7974Z" fill="#F9F3D9"/>
<path d="M36.8874 40.696L35.4436 40.6304L35.3124 43.321L41.153 47.0616L54.8686 43.321L54.9343 40.9585L50.1436 37.6116L36.8874 40.696Z" fill="#699635"/>
<path d="M35.7054 39.0561C35.7054 39.0561 37.1492 41.8123 41.4148 44.3061C41.4148 44.3061 48.2398 44.3061 54.9992 40.1061C54.9992 40.1061 51.2586 37.9404 50.3398 35.2498C50.3398 35.2498 47.5179 38.9248 35.7054 39.0561Z" fill="#83BF4F"/>
<path d="M38.6593 39.7773C38.6593 39.7773 38.9874 40.3023 37.9374 40.4991L40.6936 42.6648C40.6936 42.6648 42.2686 42.271 42.7936 43.1898C42.7936 43.1898 49.3561 42.0085 52.3749 40.4335C52.3749 40.4335 51.3905 39.9741 52.3749 39.3835C52.3749 39.3835 51.1936 38.3991 50.7343 37.7429C50.7343 37.7429 49.6186 38.071 49.028 37.2835C49.028 37.3491 46.6655 39.4491 38.6593 39.7773V39.7773Z" stroke="#699635" stroke-width="0.65625" stroke-miterlimit="10"/>
<path d="M43.713 41.4186C43.4505 41.7467 42.5973 41.878 41.8755 41.6811C41.1536 41.4842 40.8255 41.0249 41.088 40.6967C41.3505 40.3686 42.2036 40.2374 42.9255 40.4342C43.6473 40.6311 43.9755 41.0249 43.713 41.4186Z" fill="#699635"/>
<path d="M42.4012 38.5317C42.4012 38.5317 43.9762 40.6317 47.3231 43.4536L47.2575 45.4224L49.5544 44.7661L49.62 42.6661C49.62 42.6661 46.2075 39.3849 45.3544 37.8099C45.42 37.8099 44.3044 38.2692 42.4012 38.5317Z" fill="#F9F3D9"/>
<path d="M43.1874 10.3123C43.1874 14.3154 38.003 20.8123 33.9999 20.8123C29.9968 20.8123 24.8124 14.9717 24.8124 10.9686C24.8124 6.96544 25.403 10.9686 29.4061 10.9686C29.9968 10.9686 32.753 8.99982 33.9999 8.99982C34.853 8.99982 37.2811 10.9686 38.5936 10.9686C42.0718 10.9686 43.1874 7.29357 43.1874 10.3123Z" fill="#DBB471"/>
<path d="M32.8191 17.7282C32.4254 17.9907 30.5223 17.7938 29.9316 18.2532C29.1441 18.8438 30.2598 20.222 29.4723 21.0751C27.8973 22.6501 26.6504 24.422 27.0441 25.4063C27.7004 27.1126 28.9473 22.2563 30.0629 24.0938C31.1785 25.9313 30.9816 22.847 32.6879 24.422C34.3941 25.997 32.9504 21.6001 34.591 23.5032C36.2317 25.4063 36.2973 27.572 37.4785 27.572C38.8566 27.572 36.0348 22.3876 37.8723 23.6345C39.7098 24.8813 41.7442 24.422 39.9066 22.5188C39.316 21.9282 38.5285 20.8782 37.6098 19.9595C37.2816 19.6313 37.5442 17.9251 37.216 17.6626C36.8223 17.3345 35.8379 18.3845 35.4441 18.1876C34.6566 17.7938 34.9191 18.5157 33.7379 18.7126C32.9504 18.9751 33.6066 17.2032 32.8191 17.7282Z" fill="#89664C"/>
<path d="M25.2719 21.5994C27.8312 19.1713 32.4906 20.5494 35.2469 21.7306C37.9375 22.9119 39.5781 19.1713 37.8719 17.2682C36.8875 16.1525 35.3125 17.465 34.7219 18.2525C34.0656 19.04 33.5406 19.8931 32.8187 20.6806C31.7687 21.8619 29.2094 20.8775 29.9969 19.2369C30.85 17.5307 34.4594 19.4994 35.6406 19.8275C37.9375 20.4838 40.3656 20.7463 42.6625 19.8932C43.45 19.6307 43.1219 18.3182 42.3344 18.6463C39.775 19.565 37.2156 18.9744 34.7875 18.1869C33.5406 17.7932 31.5719 16.7432 30.2594 17.3338C26.5187 19.1057 29.9969 24.1588 33.1469 22.19C33.8687 21.7307 34.3281 21.0088 34.8531 20.3525C35.1812 19.9588 36.8219 17.465 37.2156 18.7119C37.4125 19.3682 37.2156 20.5494 36.4937 20.7463C36.0344 20.9432 35.1156 20.2869 34.6562 20.1557C33.8031 19.8275 32.95 19.565 32.0312 19.3682C29.6031 18.8432 26.3219 18.9744 24.4187 20.7463C23.7625 21.2713 24.6812 22.19 25.2719 21.5994Z" fill="#E8E8E8"/>
<path d="M42.3999 9.32794C41.7436 9.85294 40.5624 10.9686 38.5936 10.9686C37.2811 10.9686 34.853 8.99982 33.9999 8.99982C32.753 8.99982 29.9968 10.9686 29.4061 10.9686C27.2405 10.9686 26.0593 9.85294 25.4686 9.39357C25.4686 9.39357 26.1905 12.3467 28.4218 13.8561C30.0624 14.9061 29.8655 13.6592 30.7186 12.4779C31.5718 11.2967 32.1624 10.7061 33.6718 13.6592C34.4593 15.2998 35.9686 9.19669 37.1499 11.1654C39.3155 14.7748 40.103 12.8061 42.3999 9.32794Z" fill="#89664C"/>
<path d="M47.3869 43.3877L47.3213 45.3564L49.6182 44.7002L49.6838 42.6002C49.6838 42.6658 48.3057 43.1908 47.3869 43.3877ZM45.6807 47.3252V49.2283L48.24 48.4408V46.472C48.1744 46.4064 47.5182 46.8002 45.6807 47.3252ZM20.6775 47.8502L20.8744 49.6877L18.5775 49.1627L18.4463 47.2595C18.3807 47.2595 19.2994 47.5877 20.6775 47.8502Z" fill="#DBB471"/>
</g>
<defs>
<clipPath id="clip0_298_531">
<rect width="42" height="42" fill="white" transform="translate(12.9999 8.99982)"/>
</clipPath>
</defs>
</svg>
