<svg width="56" height="14" viewBox="0 0 56 14" fill="none" xmlns="http://www.w3.org/2000/svg">
<path d="M0.473245 7.17639H7.34701V8.51296H0.473245V7.17639ZM4.57841 4.40779V11.2816H3.24185V4.40779H4.57841ZM21.0167 12.0835H20.4057L26.0575 0.589027H27.585V13H26.0575V3.24307L26.363 3.31944L21.4749 13H19.9474L15.0594 3.33853L15.3649 3.26216V13H13.8374V0.589027H15.3649L21.0167 12.0835ZM34.4947 13.1909C33.68 13.1909 32.9163 12.9936 32.2034 12.599C31.4906 12.2044 30.9114 11.638 30.4659 10.8997C30.0331 10.1487 29.8167 9.26398 29.8167 8.24564C29.8167 7.22731 30.0331 6.34899 30.4659 5.6107C30.9114 4.85967 31.4906 4.2805 32.2034 3.87316C32.9163 3.46583 33.68 3.26216 34.4947 3.26216C35.3093 3.26216 36.0667 3.46583 36.7668 3.87316C37.4797 4.2805 38.0525 4.85967 38.4853 5.6107C38.9181 6.34899 39.1345 7.22731 39.1345 8.24564C39.1345 9.26398 38.9181 10.1487 38.4853 10.8997C38.0525 11.638 37.4797 12.2044 36.7668 12.599C36.0667 12.9936 35.3093 13.1909 34.4947 13.1909ZM34.4947 11.7589C35.0293 11.7589 35.5321 11.6252 36.0031 11.3579C36.4741 11.0906 36.8559 10.696 37.1487 10.1741C37.4542 9.63949 37.607 8.99667 37.607 8.24564C37.607 7.49462 37.4542 6.85816 37.1487 6.33626C36.8559 5.80164 36.4741 5.3943 36.0031 5.11426C35.5321 4.83422 35.0293 4.69419 34.4947 4.69419C33.96 4.69419 33.4509 4.83422 32.9672 5.11426C32.4962 5.38157 32.1079 5.78254 31.8024 6.31717C31.4969 6.83907 31.3442 7.48189 31.3442 8.24564C31.3442 8.99667 31.4906 9.63949 31.7834 10.1741C32.0889 10.696 32.4835 11.0906 32.9672 11.3579C33.4509 11.6252 33.96 11.7589 34.4947 11.7589ZM41.0729 3.4531H42.6004V13H41.0729V3.4531ZM45.6555 4.88513C45.0063 4.88513 44.4589 5.05061 44.0134 5.38157C43.5806 5.6998 43.2369 6.09441 42.9823 6.56539C42.7405 7.02364 42.5813 7.46916 42.505 7.90195L42.4859 6.79451C42.4859 6.67995 42.5113 6.48901 42.5623 6.2217C42.6132 5.95439 42.7086 5.65525 42.8487 5.32429C42.9887 4.9806 43.1733 4.65601 43.4024 4.35051C43.6442 4.03228 43.9497 3.77133 44.3189 3.56766C44.688 3.36399 45.1336 3.26216 45.6555 3.26216V4.88513ZM54.1346 9.9259H55.5666C55.4648 10.5496 55.2357 11.1097 54.8792 11.6062C54.5356 12.0899 54.0773 12.4781 53.5045 12.7709C52.9444 13.0509 52.2952 13.1909 51.5569 13.1909C50.6659 13.1909 49.8639 12.9809 49.1511 12.5608C48.4383 12.128 47.8718 11.5425 47.4518 10.8042C47.0444 10.0532 46.8408 9.20033 46.8408 8.24564C46.8408 7.29095 47.0381 6.4381 47.4327 5.68707C47.84 4.93605 48.3937 4.34414 49.0938 3.91135C49.7939 3.47856 50.5831 3.26216 51.4615 3.26216C52.3907 3.26216 53.1735 3.47219 53.81 3.89226C54.4592 4.29959 54.9365 4.90423 55.242 5.70617C55.5603 6.49538 55.6876 7.46916 55.6239 8.62752H48.3683C48.4319 9.25125 48.6038 9.79861 48.8838 10.2696C49.1638 10.7406 49.533 11.1097 49.9912 11.377C50.4495 11.6316 50.9714 11.7589 51.5569 11.7589C52.2061 11.7589 52.7535 11.5934 53.199 11.2625C53.6572 10.9188 53.9691 10.4733 54.1346 9.9259ZM51.5187 4.69419C50.7295 4.69419 50.0676 4.92332 49.533 5.38157C48.9984 5.83982 48.6419 6.46355 48.4637 7.25276H54.0582C54.0073 6.41264 53.7336 5.77618 53.2372 5.34338C52.7535 4.91059 52.1807 4.69419 51.5187 4.69419Z" fill="#BDBDBD"/>
</svg>
