<svg width="1143" height="19" viewBox="0 0 1143 19" fill="none" xmlns="http://www.w3.org/2000/svg">
<path d="M12.48 11.505C12.39 12.285 12.115 12.95 11.655 13.5C11.195 14.05 10.57 14.47 9.78 14.76C8.99 15.05 8.05 15.195 6.96 15.195C6.05 15.195 5.215 15.09 4.455 14.88C3.705 14.67 3.055 14.355 2.505 13.935C1.965 13.515 1.545 12.995 1.245 12.375C0.945 11.745 0.795 11.01 0.795 10.17C0.795 9.33 0.945 8.595 1.245 7.965C1.545 7.335 1.965 6.81 2.505 6.39C3.055 5.96 3.705 5.64 4.455 5.43C5.215 5.21 6.05 5.1 6.96 5.1C8.05 5.1 8.99 5.25 9.78 5.55C10.58 5.85 11.21 6.28 11.67 6.84C12.13 7.39 12.4 8.06 12.48 8.85H10.5C10.37 8.43 10.15 8.07 9.84 7.77C9.54 7.46 9.15 7.225 8.67 7.065C8.19 6.905 7.62 6.825 6.96 6.825C6.14 6.825 5.42 6.955 4.8 7.215C4.18 7.465 3.7 7.84 3.36 8.34C3.02 8.83 2.85 9.44 2.85 10.17C2.85 10.89 3.02 11.495 3.36 11.985C3.7 12.475 4.18 12.85 4.8 13.11C5.42 13.36 6.14 13.485 6.96 13.485C7.62 13.485 8.185 13.405 8.655 13.245C9.135 13.085 9.525 12.855 9.825 12.555C10.135 12.255 10.36 11.905 10.5 11.505H12.48ZM14.1715 7.545H16.1215V15H14.1715V7.545ZM18.9865 9.15C18.4265 9.15 17.9415 9.26 17.5315 9.48C17.1215 9.69 16.7915 9.95 16.5415 10.26C16.2915 10.57 16.1165 10.87 16.0165 11.16L16.0015 10.335C16.0115 10.215 16.0515 10.04 16.1215 9.81C16.1915 9.57 16.2965 9.315 16.4365 9.045C16.5765 8.765 16.7615 8.5 16.9915 8.25C17.2215 7.99 17.5015 7.78 17.8315 7.62C18.1615 7.46 18.5465 7.38 18.9865 7.38V9.15ZM26.987 12.525H28.877C28.797 13.035 28.582 13.49 28.232 13.89C27.892 14.29 27.427 14.605 26.837 14.835C26.247 15.065 25.527 15.18 24.677 15.18C23.727 15.18 22.887 15.03 22.157 14.73C21.427 14.42 20.857 13.975 20.447 13.395C20.037 12.815 19.832 12.115 19.832 11.295C19.832 10.475 20.032 9.775 20.432 9.195C20.832 8.605 21.387 8.155 22.097 7.845C22.817 7.535 23.657 7.38 24.617 7.38C25.597 7.38 26.412 7.535 27.062 7.845C27.712 8.155 28.192 8.625 28.502 9.255C28.822 9.875 28.957 10.67 28.907 11.64H21.797C21.847 12.02 21.987 12.365 22.217 12.675C22.457 12.985 22.777 13.23 23.177 13.41C23.587 13.59 24.072 13.68 24.632 13.68C25.252 13.68 25.767 13.575 26.177 13.365C26.597 13.145 26.867 12.865 26.987 12.525ZM24.527 8.865C23.807 8.865 23.222 9.025 22.772 9.345C22.322 9.655 22.032 10.04 21.902 10.5H26.972C26.922 10 26.682 9.605 26.252 9.315C25.832 9.015 25.257 8.865 24.527 8.865ZM33.988 15.165C33.248 15.165 32.573 15.005 31.963 14.685C31.363 14.355 30.883 13.9 30.523 13.32C30.173 12.73 29.998 12.05 29.998 11.28C29.998 10.49 30.178 9.805 30.538 9.225C30.898 8.645 31.383 8.195 31.993 7.875C32.613 7.545 33.313 7.38 34.093 7.38C34.953 7.38 35.643 7.555 36.163 7.905C36.693 8.245 37.078 8.71 37.318 9.3C37.558 9.89 37.678 10.55 37.678 11.28C37.678 11.72 37.608 12.17 37.468 12.63C37.328 13.08 37.113 13.5 36.823 13.89C36.533 14.27 36.153 14.58 35.683 14.82C35.213 15.05 34.648 15.165 33.988 15.165ZM34.618 13.665C35.208 13.665 35.718 13.565 36.148 13.365C36.578 13.165 36.908 12.885 37.138 12.525C37.368 12.165 37.483 11.75 37.483 11.28C37.483 10.77 37.363 10.34 37.123 9.99C36.893 9.63 36.563 9.36 36.133 9.18C35.713 8.99 35.208 8.895 34.618 8.895C33.788 8.895 33.143 9.115 32.683 9.555C32.223 9.985 31.993 10.56 31.993 11.28C31.993 11.76 32.103 12.18 32.323 12.54C32.543 12.89 32.848 13.165 33.238 13.365C33.638 13.565 34.098 13.665 34.618 13.665ZM37.483 7.545H39.433V15H37.618C37.618 15 37.603 14.905 37.573 14.715C37.553 14.515 37.533 14.265 37.513 13.965C37.493 13.665 37.483 13.37 37.483 13.08V7.545ZM40.6729 7.545H46.4629V9.06H40.6729V7.545ZM42.5929 5.505H44.5429V15H42.5929V5.505ZM51.9942 15.18C51.0542 15.18 50.2242 15.03 49.5042 14.73C48.7942 14.43 48.2392 13.995 47.8392 13.425C47.4392 12.845 47.2392 12.135 47.2392 11.295C47.2392 10.455 47.4392 9.745 47.8392 9.165C48.2392 8.575 48.7942 8.13 49.5042 7.83C50.2242 7.53 51.0542 7.38 51.9942 7.38C52.9342 7.38 53.7542 7.53 54.4542 7.83C55.1642 8.13 55.7192 8.575 56.1192 9.165C56.5192 9.745 56.7192 10.455 56.7192 11.295C56.7192 12.135 56.5192 12.845 56.1192 13.425C55.7192 13.995 55.1642 14.43 54.4542 14.73C53.7542 15.03 52.9342 15.18 51.9942 15.18ZM51.9942 13.68C52.5142 13.68 52.9792 13.59 53.3892 13.41C53.8092 13.22 54.1392 12.95 54.3792 12.6C54.6192 12.24 54.7392 11.805 54.7392 11.295C54.7392 10.785 54.6192 10.35 54.3792 9.99C54.1392 9.62 53.8142 9.34 53.4042 9.15C52.9942 8.96 52.5242 8.865 51.9942 8.865C51.4742 8.865 51.0042 8.96 50.5842 9.15C50.1642 9.34 49.8292 9.615 49.5792 9.975C49.3392 10.335 49.2192 10.775 49.2192 11.295C49.2192 11.805 49.3392 12.24 49.5792 12.6C49.8192 12.95 50.1492 13.22 50.5692 13.41C50.9892 13.59 51.4642 13.68 51.9942 13.68ZM58.1607 7.545H60.1107V15H58.1607V7.545ZM62.9757 9.15C62.4157 9.15 61.9307 9.26 61.5207 9.48C61.1107 9.69 60.7807 9.95 60.5307 10.26C60.2807 10.57 60.1057 10.87 60.0057 11.16L59.9907 10.335C60.0007 10.215 60.0407 10.04 60.1107 9.81C60.1807 9.57 60.2857 9.315 60.4257 9.045C60.5657 8.765 60.7507 8.5 60.9807 8.25C61.2107 7.99 61.4907 7.78 61.8207 7.62C62.1507 7.46 62.5357 7.38 62.9757 7.38V9.15Z" fill="#BDBDBD"/>
<path d="M256.7 14.01H255.755L261.335 5.295H263.33V15H261.335V7.95L261.815 8.085L257.36 15H255.125L250.67 8.115L251.15 7.98V15H249.155V5.295H251.15L256.7 14.01ZM269.009 15.165C268.269 15.165 267.594 15.005 266.984 14.685C266.384 14.355 265.904 13.9 265.544 13.32C265.194 12.73 265.019 12.05 265.019 11.28C265.019 10.49 265.199 9.805 265.559 9.225C265.919 8.645 266.404 8.195 267.014 7.875C267.634 7.545 268.334 7.38 269.114 7.38C269.974 7.38 270.664 7.555 271.184 7.905C271.714 8.245 272.099 8.71 272.339 9.3C272.579 9.89 272.699 10.55 272.699 11.28C272.699 11.72 272.629 12.17 272.489 12.63C272.349 13.08 272.134 13.5 271.844 13.89C271.554 14.27 271.174 14.58 270.704 14.82C270.234 15.05 269.669 15.165 269.009 15.165ZM269.639 13.665C270.229 13.665 270.739 13.565 271.169 13.365C271.599 13.165 271.929 12.885 272.159 12.525C272.389 12.165 272.504 11.75 272.504 11.28C272.504 10.77 272.384 10.34 272.144 9.99C271.914 9.63 271.584 9.36 271.154 9.18C270.734 8.99 270.229 8.895 269.639 8.895C268.809 8.895 268.164 9.115 267.704 9.555C267.244 9.985 267.014 10.56 267.014 11.28C267.014 11.76 267.124 12.18 267.344 12.54C267.564 12.89 267.869 13.165 268.259 13.365C268.659 13.565 269.119 13.665 269.639 13.665ZM272.504 7.545H274.454V15H272.639C272.639 15 272.624 14.905 272.594 14.715C272.574 14.515 272.554 14.265 272.534 13.965C272.514 13.665 272.504 13.37 272.504 13.08V7.545ZM275.694 7.545H281.484V9.06H275.694V7.545ZM277.614 5.505H279.564V15H277.614V5.505ZM291.471 12.06C291.421 12.71 291.211 13.27 290.841 13.74C290.481 14.21 289.981 14.57 289.341 14.82C288.701 15.06 287.941 15.18 287.061 15.18C286.141 15.18 285.316 15.035 284.586 14.745C283.866 14.445 283.296 14.01 282.876 13.44C282.466 12.86 282.261 12.145 282.261 11.295C282.261 10.445 282.466 9.73 282.876 9.15C283.296 8.57 283.866 8.13 284.586 7.83C285.316 7.53 286.141 7.38 287.061 7.38C287.941 7.38 288.696 7.505 289.326 7.755C289.956 7.995 290.451 8.345 290.811 8.805C291.181 9.265 291.396 9.82 291.456 10.47H289.671C289.501 9.97 289.186 9.58 288.726 9.3C288.266 9.02 287.711 8.88 287.061 8.88C286.541 8.88 286.066 8.97 285.636 9.15C285.216 9.33 284.876 9.6 284.616 9.96C284.366 10.31 284.241 10.755 284.241 11.295C284.241 11.825 284.366 12.27 284.616 12.63C284.866 12.98 285.206 13.245 285.636 13.425C286.066 13.595 286.541 13.68 287.061 13.68C287.761 13.68 288.331 13.54 288.771 13.26C289.221 12.98 289.526 12.58 289.686 12.06H291.471ZM299.714 15V10.905C299.714 10.495 299.644 10.155 299.504 9.885C299.364 9.615 299.139 9.41 298.829 9.27C298.529 9.13 298.124 9.06 297.614 9.06C297.124 9.06 296.679 9.155 296.279 9.345C295.879 9.525 295.554 9.765 295.304 10.065C295.054 10.355 294.914 10.665 294.884 10.995L294.869 10.17C294.919 9.84 295.034 9.51 295.214 9.18C295.394 8.85 295.634 8.55 295.934 8.28C296.234 8.01 296.594 7.795 297.014 7.635C297.444 7.465 297.924 7.38 298.454 7.38C298.914 7.38 299.339 7.44 299.729 7.56C300.119 7.67 300.459 7.845 300.749 8.085C301.039 8.325 301.264 8.625 301.424 8.985C301.584 9.335 301.664 9.75 301.664 10.23V15H299.714ZM293.039 15V4.545H294.989V15H293.039Z" fill="#BDBDBD"/>
<path d="M482.88 11.85V10.26H487.32C487.85 10.26 488.27 10.12 488.58 9.84C488.89 9.55 489.045 9.15 489.045 8.64C489.045 8.11 488.89 7.705 488.58 7.425C488.27 7.145 487.85 7.005 487.32 7.005H483.12V15H481.125V5.295H487.14C487.68 5.295 488.185 5.36 488.655 5.49C489.135 5.62 489.55 5.82 489.9 6.09C490.26 6.36 490.54 6.705 490.74 7.125C490.94 7.545 491.04 8.05 491.04 8.64C491.04 9.22 490.94 9.715 490.74 10.125C490.54 10.535 490.26 10.87 489.9 11.13C489.55 11.38 489.135 11.565 488.655 11.685C488.185 11.795 487.68 11.85 487.14 11.85H482.88ZM494.898 4.275V5.985H492.633V4.275H494.898ZM492.783 7.545H494.733V15H492.783V7.545ZM505.526 12.06C505.476 12.71 505.266 13.27 504.896 13.74C504.536 14.21 504.036 14.57 503.396 14.82C502.756 15.06 501.996 15.18 501.116 15.18C500.196 15.18 499.371 15.035 498.641 14.745C497.921 14.445 497.351 14.01 496.931 13.44C496.521 12.86 496.316 12.145 496.316 11.295C496.316 10.445 496.521 9.73 496.931 9.15C497.351 8.57 497.921 8.13 498.641 7.83C499.371 7.53 500.196 7.38 501.116 7.38C501.996 7.38 502.751 7.505 503.381 7.755C504.011 7.995 504.506 8.345 504.866 8.805C505.236 9.265 505.451 9.82 505.511 10.47H503.726C503.556 9.97 503.241 9.58 502.781 9.3C502.321 9.02 501.766 8.88 501.116 8.88C500.596 8.88 500.121 8.97 499.691 9.15C499.271 9.33 498.931 9.6 498.671 9.96C498.421 10.31 498.296 10.755 498.296 11.295C498.296 11.825 498.421 12.27 498.671 12.63C498.921 12.98 499.261 13.245 499.691 13.425C500.121 13.595 500.596 13.68 501.116 13.68C501.816 13.68 502.386 13.54 502.826 13.26C503.276 12.98 503.581 12.58 503.741 12.06H505.526ZM507.095 4.545H509.045V15H507.095V4.545ZM515.33 7.545L510.89 11.46L510.935 10.26L515.675 15H513.2L509.09 10.815L512.675 7.545H515.33Z" fill="#BDBDBD"/>
<path d="M622.12 13.076H621.238L626.446 4.942H628.308V14H626.446V7.42L626.894 7.546L622.736 14H620.65L616.492 7.574L616.94 7.448V14H615.078V4.942H616.94L622.12 13.076ZM633.609 14.154C632.918 14.154 632.288 14.0047 631.719 13.706C631.159 13.398 630.711 12.9733 630.375 12.432C630.048 11.8813 629.885 11.2467 629.885 10.528C629.885 9.79067 630.053 9.15133 630.389 8.61C630.725 8.06867 631.178 7.64867 631.747 7.35C632.326 7.042 632.979 6.888 633.707 6.888C634.51 6.888 635.154 7.05133 635.639 7.378C636.134 7.69533 636.493 8.12933 636.717 8.68C636.941 9.23067 637.053 9.84667 637.053 10.528C637.053 10.9387 636.988 11.3587 636.857 11.788C636.726 12.208 636.526 12.6 636.255 12.964C635.984 13.3187 635.63 13.608 635.191 13.832C634.752 14.0467 634.225 14.154 633.609 14.154ZM634.197 12.754C634.748 12.754 635.224 12.6607 635.625 12.474C636.026 12.2873 636.334 12.026 636.549 11.69C636.764 11.354 636.871 10.9667 636.871 10.528C636.871 10.052 636.759 9.65067 636.535 9.324C636.32 8.988 636.012 8.736 635.611 8.568C635.219 8.39067 634.748 8.302 634.197 8.302C633.422 8.302 632.82 8.50733 632.391 8.918C631.962 9.31933 631.747 9.856 631.747 10.528C631.747 10.976 631.85 11.368 632.055 11.704C632.26 12.0307 632.545 12.2873 632.909 12.474C633.282 12.6607 633.712 12.754 634.197 12.754ZM636.871 7.042H638.691V14H636.997C636.997 14 636.983 13.9113 636.955 13.734C636.936 13.5473 636.918 13.314 636.899 13.034C636.88 12.754 636.871 12.4787 636.871 12.208V7.042ZM639.848 7.042H645.252V8.456H639.848V7.042ZM641.64 5.138H643.46V14H641.64V5.138ZM654.573 11.256C654.526 11.8627 654.33 12.3853 653.985 12.824C653.649 13.2627 653.182 13.5987 652.585 13.832C651.987 14.056 651.278 14.168 650.457 14.168C649.598 14.168 648.828 14.0327 648.147 13.762C647.475 13.482 646.943 13.076 646.551 12.544C646.168 12.0027 645.977 11.3353 645.977 10.542C645.977 9.74867 646.168 9.08133 646.551 8.54C646.943 7.99867 647.475 7.588 648.147 7.308C648.828 7.028 649.598 6.888 650.457 6.888C651.278 6.888 651.983 7.00467 652.571 7.238C653.159 7.462 653.621 7.78867 653.957 8.218C654.302 8.64733 654.503 9.16533 654.559 9.772H652.893C652.734 9.30533 652.44 8.94133 652.011 8.68C651.581 8.41867 651.063 8.288 650.457 8.288C649.971 8.288 649.528 8.372 649.127 8.54C648.735 8.708 648.417 8.96 648.175 9.296C647.941 9.62267 647.825 10.038 647.825 10.542C647.825 11.0367 647.941 11.452 648.175 11.788C648.408 12.1147 648.725 12.362 649.127 12.53C649.528 12.6887 649.971 12.768 650.457 12.768C651.11 12.768 651.642 12.6373 652.053 12.376C652.473 12.1147 652.757 11.7413 652.907 11.256H654.573ZM662.266 14V10.178C662.266 9.79533 662.201 9.478 662.07 9.226C661.94 8.974 661.73 8.78267 661.44 8.652C661.16 8.52133 660.782 8.456 660.306 8.456C659.849 8.456 659.434 8.54467 659.06 8.722C658.687 8.89 658.384 9.114 658.15 9.394C657.917 9.66467 657.786 9.954 657.758 10.262L657.744 9.492C657.791 9.184 657.898 8.876 658.066 8.568C658.234 8.26 658.458 7.98 658.738 7.728C659.018 7.476 659.354 7.27533 659.746 7.126C660.148 6.96733 660.596 6.888 661.09 6.888C661.52 6.888 661.916 6.944 662.28 7.056C662.644 7.15867 662.962 7.322 663.232 7.546C663.503 7.77 663.713 8.05 663.862 8.386C664.012 8.71267 664.086 9.1 664.086 9.548V14H662.266ZM656.036 14V4.242H657.856V14H656.036ZM667.997 4.942H677.545V6.496H667.997V4.942ZM671.847 6.3H673.709V14H671.847V6.3ZM680.746 3.99V5.586H678.632V3.99H680.746ZM678.772 7.042H680.592V14H678.772V7.042ZM682.406 7.042H684.226V14H682.406V7.042ZM687.46 6.888C687.89 6.888 688.286 6.944 688.65 7.056C689.014 7.168 689.332 7.34067 689.602 7.574C689.873 7.80733 690.083 8.106 690.232 8.47C690.382 8.82467 690.456 9.24933 690.456 9.744V14H688.636V10.066C688.636 9.478 688.492 9.04867 688.202 8.778C687.922 8.498 687.46 8.358 686.816 8.358C686.331 8.358 685.892 8.45133 685.5 8.638C685.108 8.82467 684.791 9.06267 684.548 9.352C684.306 9.632 684.166 9.926 684.128 10.234L684.114 9.52C684.161 9.19333 684.268 8.876 684.436 8.568C684.604 8.26 684.828 7.98 685.108 7.728C685.398 7.46667 685.738 7.26133 686.13 7.112C686.522 6.96267 686.966 6.888 687.46 6.888ZM693.522 6.888C693.952 6.888 694.348 6.944 694.712 7.056C695.076 7.168 695.394 7.34067 695.664 7.574C695.935 7.80733 696.145 8.106 696.294 8.47C696.453 8.82467 696.532 9.24933 696.532 9.744V14H694.712V10.066C694.712 9.478 694.568 9.04867 694.278 8.778C693.989 8.498 693.522 8.358 692.878 8.358C692.393 8.358 691.954 8.45133 691.562 8.638C691.17 8.82467 690.853 9.06267 690.61 9.352C690.368 9.632 690.232 9.926 690.204 10.234L690.176 9.478C690.223 9.17 690.335 8.862 690.512 8.554C690.69 8.246 690.923 7.966 691.212 7.714C691.502 7.462 691.838 7.26133 692.22 7.112C692.612 6.96267 693.046 6.888 693.522 6.888ZM704.526 11.69H706.29C706.215 12.166 706.014 12.5907 705.688 12.964C705.37 13.3373 704.936 13.6313 704.386 13.846C703.835 14.0607 703.163 14.168 702.37 14.168C701.483 14.168 700.699 14.028 700.018 13.748C699.336 13.4587 698.804 13.0433 698.422 12.502C698.039 11.9607 697.848 11.3073 697.848 10.542C697.848 9.77667 698.034 9.12333 698.408 8.582C698.781 8.03133 699.299 7.61133 699.962 7.322C700.634 7.03267 701.418 6.888 702.314 6.888C703.228 6.888 703.989 7.03267 704.596 7.322C705.202 7.61133 705.65 8.05 705.94 8.638C706.238 9.21667 706.364 9.95867 706.318 10.864H699.682C699.728 11.2187 699.859 11.5407 700.074 11.83C700.298 12.1193 700.596 12.348 700.97 12.516C701.352 12.684 701.805 12.768 702.328 12.768C702.906 12.768 703.387 12.67 703.77 12.474C704.162 12.2687 704.414 12.0073 704.526 11.69ZM702.23 8.274C701.558 8.274 701.012 8.42333 700.592 8.722C700.172 9.01133 699.901 9.37067 699.78 9.8H704.512C704.465 9.33333 704.241 8.96467 703.84 8.694C703.448 8.414 702.911 8.274 702.23 8.274Z" fill="#BDBDBD"/>
<path d="M757.492 12.026V10.472H763.484V12.026H757.492ZM755.238 14L759.494 4.942H761.51L765.808 14H763.778L760.054 5.838H760.95L757.254 14H755.238ZM766.887 7.042H768.707V14H766.887V7.042ZM771.941 6.888C772.37 6.888 772.767 6.944 773.131 7.056C773.495 7.168 773.812 7.34067 774.083 7.574C774.354 7.80733 774.564 8.106 774.713 8.47C774.862 8.82467 774.937 9.24933 774.937 9.744V14H773.117V10.066C773.117 9.478 772.972 9.04867 772.683 8.778C772.403 8.498 771.941 8.358 771.297 8.358C770.812 8.358 770.373 8.45133 769.981 8.638C769.589 8.82467 769.272 9.06267 769.029 9.352C768.786 9.632 768.646 9.926 768.609 10.234L768.595 9.52C768.642 9.19333 768.749 8.876 768.917 8.568C769.085 8.26 769.309 7.98 769.589 7.728C769.878 7.46667 770.219 7.26133 770.611 7.112C771.003 6.96267 771.446 6.888 771.941 6.888ZM778.003 6.888C778.432 6.888 778.829 6.944 779.193 7.056C779.557 7.168 779.874 7.34067 780.145 7.574C780.416 7.80733 780.626 8.106 780.775 8.47C780.934 8.82467 781.013 9.24933 781.013 9.744V14H779.193V10.066C779.193 9.478 779.048 9.04867 778.759 8.778C778.47 8.498 778.003 8.358 777.359 8.358C776.874 8.358 776.435 8.45133 776.043 8.638C775.651 8.82467 775.334 9.06267 775.091 9.352C774.848 9.632 774.713 9.926 774.685 10.234L774.657 9.478C774.704 9.17 774.816 8.862 774.993 8.554C775.17 8.246 775.404 7.966 775.693 7.714C775.982 7.462 776.318 7.26133 776.701 7.112C777.093 6.96267 777.527 6.888 778.003 6.888ZM786.766 14.168C785.889 14.168 785.114 14.028 784.442 13.748C783.78 13.468 783.262 13.062 782.888 12.53C782.515 11.9887 782.328 11.326 782.328 10.542C782.328 9.758 782.515 9.09533 782.888 8.554C783.262 8.00333 783.78 7.588 784.442 7.308C785.114 7.028 785.889 6.888 786.766 6.888C787.644 6.888 788.409 7.028 789.062 7.308C789.725 7.588 790.243 8.00333 790.616 8.554C790.99 9.09533 791.176 9.758 791.176 10.542C791.176 11.326 790.99 11.9887 790.616 12.53C790.243 13.062 789.725 13.468 789.062 13.748C788.409 14.028 787.644 14.168 786.766 14.168ZM786.766 12.768C787.252 12.768 787.686 12.684 788.068 12.516C788.46 12.3387 788.768 12.0867 788.992 11.76C789.216 11.424 789.328 11.018 789.328 10.542C789.328 10.066 789.216 9.66 788.992 9.324C788.768 8.97867 788.465 8.71733 788.082 8.54C787.7 8.36267 787.261 8.274 786.766 8.274C786.281 8.274 785.842 8.36267 785.45 8.54C785.058 8.71733 784.746 8.974 784.512 9.31C784.288 9.646 784.176 10.0567 784.176 10.542C784.176 11.018 784.288 11.424 784.512 11.76C784.736 12.0867 785.044 12.3387 785.436 12.516C785.828 12.684 786.272 12.768 786.766 12.768ZM800.572 14H798.752V7.042H800.572V14ZM798.85 10.654L798.864 11.13C798.845 11.2607 798.798 11.452 798.724 11.704C798.649 11.9467 798.532 12.208 798.374 12.488C798.224 12.768 798.028 13.0387 797.786 13.3C797.543 13.552 797.244 13.762 796.89 13.93C796.535 14.0887 796.115 14.168 795.63 14.168C795.247 14.168 794.869 14.1213 794.496 14.028C794.132 13.9347 793.8 13.7807 793.502 13.566C793.203 13.342 792.965 13.0433 792.788 12.67C792.61 12.2967 792.522 11.8253 792.522 11.256V7.042H794.342V10.948C794.342 11.396 794.412 11.7507 794.552 12.012C794.701 12.264 794.916 12.4413 795.196 12.544C795.476 12.6467 795.807 12.698 796.19 12.698C796.694 12.698 797.128 12.5907 797.492 12.376C797.856 12.152 798.15 11.8813 798.374 11.564C798.607 11.2467 798.766 10.9433 798.85 10.654ZM802.229 7.042H804.049V14H802.229V7.042ZM807.283 6.888C807.712 6.888 808.109 6.944 808.473 7.056C808.837 7.168 809.154 7.34067 809.425 7.574C809.695 7.80733 809.905 8.106 810.055 8.47C810.204 8.82467 810.279 9.24933 810.279 9.744V14H808.459V10.066C808.459 9.478 808.314 9.04867 808.025 8.778C807.745 8.498 807.283 8.358 806.639 8.358C806.153 8.358 805.715 8.45133 805.323 8.638C804.931 8.82467 804.613 9.06267 804.371 9.352C804.128 9.632 803.988 9.926 803.951 10.234L803.937 9.52C803.983 9.19333 804.091 8.876 804.259 8.568C804.427 8.26 804.651 7.98 804.931 7.728C805.22 7.46667 805.561 7.26133 805.953 7.112C806.345 6.96267 806.788 6.888 807.283 6.888ZM811.446 7.042H816.85V8.456H811.446V7.042ZM813.238 5.138H815.058V14H813.238V5.138Z" fill="#BDBDBD"/>
<path d="M908.67 11.885V10.22H915.09V11.885H908.67ZM906.255 14L910.815 4.295H912.975L917.58 14H915.405L911.415 5.255H912.375L908.415 14H906.255ZM927.498 11.06C927.448 11.71 927.238 12.27 926.868 12.74C926.508 13.21 926.008 13.57 925.368 13.82C924.728 14.06 923.968 14.18 923.088 14.18C922.168 14.18 921.343 14.035 920.613 13.745C919.893 13.445 919.323 13.01 918.903 12.44C918.493 11.86 918.288 11.145 918.288 10.295C918.288 9.445 918.493 8.73 918.903 8.15C919.323 7.57 919.893 7.13 920.613 6.83C921.343 6.53 922.168 6.38 923.088 6.38C923.968 6.38 924.723 6.505 925.353 6.755C925.983 6.995 926.478 7.345 926.838 7.805C927.208 8.265 927.423 8.82 927.483 9.47H925.698C925.528 8.97 925.213 8.58 924.753 8.3C924.293 8.02 923.738 7.88 923.088 7.88C922.568 7.88 922.093 7.97 921.663 8.15C921.243 8.33 920.903 8.6 920.643 8.96C920.393 9.31 920.268 9.755 920.268 10.295C920.268 10.825 920.393 11.27 920.643 11.63C920.893 11.98 921.233 12.245 921.663 12.425C922.093 12.595 922.568 12.68 923.088 12.68C923.788 12.68 924.358 12.54 924.798 12.26C925.248 11.98 925.553 11.58 925.713 11.06H927.498ZM928.406 6.545H934.196V8.06H928.406V6.545ZM930.326 4.505H932.276V14H930.326V4.505ZM937.67 3.275V4.985H935.405V3.275H937.67ZM935.555 6.545H937.505V14H935.555V6.545ZM943.559 12.725H942.854L945.584 6.545H947.714L944.129 14H942.284L938.774 6.545H940.919L943.559 12.725ZM951.088 3.275V4.985H948.823V3.275H951.088ZM948.973 6.545H950.923V14H948.973V6.545ZM952.342 6.545H958.132V8.06H952.342V6.545ZM954.262 4.505H956.212V14H954.262V4.505ZM958.696 6.545H960.766L963.991 13.7L962.311 14L958.696 6.545ZM967.816 6.545L962.656 17H960.631L962.836 12.89L965.731 6.545H967.816Z" fill="#BDBDBD"/>
<path d="M1091.67 12.885V11.22H1098.09V12.885H1091.67ZM1089.26 15L1093.82 5.295H1095.98L1100.58 15H1098.41L1094.42 6.255H1095.38L1091.42 15H1089.26ZM1110.5 12.06C1110.45 12.71 1110.24 13.27 1109.87 13.74C1109.51 14.21 1109.01 14.57 1108.37 14.82C1107.73 15.06 1106.97 15.18 1106.09 15.18C1105.17 15.18 1104.34 15.035 1103.61 14.745C1102.89 14.445 1102.32 14.01 1101.9 13.44C1101.49 12.86 1101.29 12.145 1101.29 11.295C1101.29 10.445 1101.49 9.73 1101.9 9.15C1102.32 8.57 1102.89 8.13 1103.61 7.83C1104.34 7.53 1105.17 7.38 1106.09 7.38C1106.97 7.38 1107.72 7.505 1108.35 7.755C1108.98 7.995 1109.48 8.345 1109.84 8.805C1110.21 9.265 1110.42 9.82 1110.48 10.47H1108.7C1108.53 9.97 1108.21 9.58 1107.75 9.3C1107.29 9.02 1106.74 8.88 1106.09 8.88C1105.57 8.88 1105.09 8.97 1104.66 9.15C1104.24 9.33 1103.9 9.6 1103.64 9.96C1103.39 10.31 1103.27 10.755 1103.27 11.295C1103.27 11.825 1103.39 12.27 1103.64 12.63C1103.89 12.98 1104.23 13.245 1104.66 13.425C1105.09 13.595 1105.57 13.68 1106.09 13.68C1106.79 13.68 1107.36 13.54 1107.8 13.26C1108.25 12.98 1108.55 12.58 1108.71 12.06H1110.5ZM1111.41 7.545H1117.2V9.06H1111.41V7.545ZM1113.33 5.505H1115.28V15H1113.33V5.505ZM1120.67 4.275V5.985H1118.41V4.275H1120.67ZM1118.56 7.545H1120.51V15H1118.56V7.545ZM1126.84 15.18C1125.9 15.18 1125.07 15.03 1124.35 14.73C1123.64 14.43 1123.09 13.995 1122.69 13.425C1122.29 12.845 1122.09 12.135 1122.09 11.295C1122.09 10.455 1122.29 9.745 1122.69 9.165C1123.09 8.575 1123.64 8.13 1124.35 7.83C1125.07 7.53 1125.9 7.38 1126.84 7.38C1127.78 7.38 1128.6 7.53 1129.3 7.83C1130.01 8.13 1130.57 8.575 1130.97 9.165C1131.37 9.745 1131.57 10.455 1131.57 11.295C1131.57 12.135 1131.37 12.845 1130.97 13.425C1130.57 13.995 1130.01 14.43 1129.3 14.73C1128.6 15.03 1127.78 15.18 1126.84 15.18ZM1126.84 13.68C1127.36 13.68 1127.83 13.59 1128.24 13.41C1128.66 13.22 1128.99 12.95 1129.23 12.6C1129.47 12.24 1129.59 11.805 1129.59 11.295C1129.59 10.785 1129.47 10.35 1129.23 9.99C1128.99 9.62 1128.66 9.34 1128.25 9.15C1127.84 8.96 1127.37 8.865 1126.84 8.865C1126.32 8.865 1125.85 8.96 1125.43 9.15C1125.01 9.34 1124.68 9.615 1124.43 9.975C1124.19 10.335 1124.07 10.775 1124.07 11.295C1124.07 11.805 1124.19 12.24 1124.43 12.6C1124.67 12.95 1125 13.22 1125.42 13.41C1125.84 13.59 1126.31 13.68 1126.84 13.68ZM1133.01 7.545H1134.96V15H1133.01V7.545ZM1138.43 7.38C1138.89 7.38 1139.31 7.44 1139.7 7.56C1140.09 7.68 1140.43 7.865 1140.72 8.115C1141.01 8.365 1141.24 8.685 1141.4 9.075C1141.56 9.455 1141.64 9.91 1141.64 10.44V15H1139.69V10.785C1139.69 10.155 1139.53 9.695 1139.22 9.405C1138.92 9.105 1138.43 8.955 1137.74 8.955C1137.22 8.955 1136.75 9.055 1136.33 9.255C1135.91 9.455 1135.57 9.71 1135.31 10.02C1135.05 10.32 1134.9 10.635 1134.86 10.965L1134.84 10.2C1134.89 9.85 1135.01 9.51 1135.19 9.18C1135.37 8.85 1135.61 8.55 1135.91 8.28C1136.22 8 1136.58 7.78 1137 7.62C1137.42 7.46 1137.9 7.38 1138.43 7.38Z" fill="#BDBDBD"/>
</svg>
