<svg width="67" height="62" viewBox="0 0 67 62" fill="none" xmlns="http://www.w3.org/2000/svg">
<rect x="0.763672" y="1.17133" width="64.9346" height="59.7347" rx="11.5" fill="#213663" stroke="#304E8D"/>
<g clip-path="url(#clip0_298_480)">
<path d="M46 11.1405C46 9.60922 44.5234 8.0014 42.9766 8.0014H23.7109C22.1641 8.0014 20.6875 9.60922 20.6875 11.1405V53.7858C20.6875 55.3936 22.1641 56.9248 23.7109 56.9248H43.0469C44.5234 56.9248 46.0703 55.317 46.0703 53.7858V11.1405H46Z" fill="#5C6D6D"/>
<path d="M45.2969 53.1733C45.2969 54.7045 43.8906 56.2358 42.4844 56.2358H24.2031C22.7969 56.2358 21.3906 54.7045 21.3906 53.1733V11.8295C21.3906 10.2983 22.7969 8.76703 24.2031 8.76703H42.4844C43.8906 8.76703 45.2969 10.2983 45.2969 11.8295V53.1733Z" fill="#212528"/>
<path d="M41.4297 12.2123C41.818 12.2123 42.1328 11.8696 42.1328 11.4467C42.1328 11.0239 41.818 10.6811 41.4297 10.6811C41.0414 10.6811 40.7266 11.0239 40.7266 11.4467C40.7266 11.8696 41.0414 12.2123 41.4297 12.2123Z" fill="#94989B"/>
<path d="M35.4531 11.4467C35.4531 11.6764 35.3828 11.8295 35.2422 11.8295H31.4453C31.3047 11.8295 31.2344 11.6764 31.2344 11.4467C31.2344 11.2936 31.3047 11.0639 31.4453 11.0639H35.2422C35.3828 11.0639 35.4531 11.2936 35.4531 11.4467Z" fill="#94989B"/>
<path d="M22.7969 14.1264H43.8906V50.8764H22.7969V14.1264Z" fill="#3E4347"/>
<path d="M36.0146 54.0925C36.0146 54.3988 35.8037 54.705 35.4521 54.705H31.2334C30.9521 54.705 30.6709 54.4754 30.6709 54.0925V52.9441C30.6709 52.6379 30.8818 52.3316 31.2334 52.3316H35.4521C35.7334 52.3316 36.0146 52.5613 36.0146 52.9441V54.0925Z" fill="#94989B"/>
<path d="M27.7191 19.2556C27.7191 19.6384 27.4379 19.8681 27.1566 19.8681H24.8363C24.4847 19.8681 24.2738 19.5618 24.2738 19.2556V16.729C24.2738 16.3462 24.5551 16.1165 24.8363 16.1165H27.1566C27.5082 16.1165 27.7191 16.4228 27.7191 16.729V19.2556Z" fill="#42ADE2"/>
<path d="M32.641 19.2556C32.641 19.6384 32.3597 19.8681 32.0785 19.8681H29.7582C29.4066 19.8681 29.1957 19.5618 29.1957 19.2556V16.729C29.1957 16.3462 29.4769 16.1165 29.7582 16.1165H32.0785C32.4301 16.1165 32.641 16.4228 32.641 16.729V19.2556Z" fill="#C7E755"/>
<path d="M37.5629 19.2556C37.5629 19.6384 37.2816 19.8681 37.0004 19.8681H34.6801C34.3285 19.8681 34.1176 19.5618 34.1176 19.2556V16.729C34.1176 16.3462 34.3988 16.1165 34.6801 16.1165H37.0004C37.3519 16.1165 37.5629 16.4228 37.5629 16.729V19.2556Z" fill="#F2B200"/>
<path d="M42.4847 19.2556C42.4847 19.6384 42.2035 19.8681 41.9222 19.8681H39.6019C39.2504 19.8681 39.0394 19.5618 39.0394 19.2556V16.729C39.0394 16.3462 39.3207 16.1165 39.6019 16.1165H41.9222C42.2738 16.1165 42.4847 16.4228 42.4847 16.729V19.2556Z" fill="#42ADE2"/>
<path d="M27.7191 48.7321C27.7191 49.115 27.4379 49.3446 27.1566 49.3446H24.8363C24.4847 49.3446 24.2738 49.0384 24.2738 48.7321V46.2056C24.2738 45.8228 24.5551 45.5931 24.8363 45.5931H27.1566C27.5082 45.5931 27.7191 45.8993 27.7191 46.2056V48.7321Z" fill="#C7E755"/>
<path d="M32.641 48.7321C32.641 49.115 32.3597 49.3446 32.0785 49.3446H29.7582C29.4066 49.3446 29.1957 49.0384 29.1957 48.7321V46.2056C29.1957 45.8228 29.4769 45.5931 29.7582 45.5931H32.0785C32.4301 45.5931 32.641 45.8993 32.641 46.2056V48.7321Z" fill="#FF435E"/>
<path d="M37.5629 48.7321C37.5629 49.115 37.2816 49.3446 37.0004 49.3446H34.6801C34.3285 49.3446 34.1176 49.0384 34.1176 48.7321V46.2056C34.1176 45.8228 34.3988 45.5931 34.6801 45.5931H37.0004C37.3519 45.5931 37.5629 45.8993 37.5629 46.2056V48.7321Z" fill="#42ADE2"/>
<path d="M42.4847 48.7321C42.4847 49.115 42.2035 49.3446 41.9222 49.3446H39.6019C39.2504 49.3446 39.0394 49.0384 39.0394 48.7321V46.2056C39.0394 45.8228 39.3207 45.5931 39.6019 45.5931H41.9222C42.2738 45.5931 42.4847 45.8993 42.4847 46.2056V48.7321Z" fill="#C28FEF"/>
<path d="M27.7191 33.9563C27.7191 34.3391 27.4379 34.5688 27.1566 34.5688H24.8363C24.4847 34.5688 24.2738 34.2625 24.2738 33.9563V31.4297C24.2738 31.0469 24.5551 30.8172 24.8363 30.8172H27.1566C27.5082 30.8172 27.7191 31.1235 27.7191 31.4297V33.9563Z" fill="#C7E755"/>
<path d="M32.641 33.9563C32.641 34.3391 32.3597 34.5688 32.0785 34.5688H29.7582C29.4066 34.5688 29.1957 34.2625 29.1957 33.9563V31.4297C29.1957 31.0469 29.4769 30.8172 29.7582 30.8172H32.0785C32.4301 30.8172 32.641 31.1235 32.641 31.4297V33.9563Z" fill="#C28FEF"/>
<path d="M37.5629 33.9563C37.5629 34.3391 37.2816 34.5688 37.0004 34.5688H34.6801C34.3285 34.5688 34.1176 34.2625 34.1176 33.9563V31.4297C34.1176 31.0469 34.3988 30.8172 34.6801 30.8172H37.0004C37.3519 30.8172 37.5629 31.1235 37.5629 31.4297V33.9563Z" fill="#42ADE2"/>
<path d="M27.7191 29.0566C27.7191 29.4394 27.4379 29.6691 27.1566 29.6691H24.8363C24.4847 29.6691 24.2738 29.3629 24.2738 29.0566V26.53C24.2738 26.1472 24.5551 25.9175 24.8363 25.9175H27.1566C27.5082 25.9175 27.7191 26.2238 27.7191 26.53V29.0566Z" fill="#FF435E"/>
<path d="M32.641 29.0566C32.641 29.4394 32.3597 29.6691 32.0785 29.6691H29.7582C29.4066 29.6691 29.1957 29.3629 29.1957 29.0566V26.53C29.1957 26.1472 29.4769 25.9175 29.7582 25.9175H32.0785C32.4301 25.9175 32.641 26.2238 32.641 26.53V29.0566Z" fill="#F2B200"/>
<path d="M37.5629 29.0566C37.5629 29.4394 37.2816 29.6691 37.0004 29.6691H34.6801C34.3285 29.6691 34.1176 29.3629 34.1176 29.0566V26.53C34.1176 26.1472 34.3988 25.9175 34.6801 25.9175H37.0004C37.3519 25.9175 37.5629 26.2238 37.5629 26.53V29.0566Z" fill="#C7E755"/>
<path d="M42.4847 29.0566C42.4847 29.4394 42.2035 29.6691 41.9222 29.6691H39.6019C39.2504 29.6691 39.0394 29.3629 39.0394 29.0566V26.53C39.0394 26.1472 39.3207 25.9175 39.6019 25.9175H41.9222C42.2738 25.9175 42.4847 26.2238 42.4847 26.53V29.0566Z" fill="#F2B200"/>
<path d="M27.7191 24.1561C27.7191 24.5389 27.4379 24.7686 27.1566 24.7686H24.8363C24.4847 24.7686 24.2738 24.4623 24.2738 24.1561V21.6295C24.2738 21.2467 24.5551 21.017 24.8363 21.017H27.1566C27.5082 21.017 27.7191 21.3233 27.7191 21.6295V24.1561Z" fill="#C28FEF"/>
<path d="M32.641 24.1561C32.641 24.5389 32.3597 24.7686 32.0785 24.7686H29.7582C29.4066 24.7686 29.1957 24.4623 29.1957 24.1561V21.6295C29.1957 21.2467 29.4769 21.017 29.7582 21.017H32.0785C32.4301 21.017 32.641 21.3233 32.641 21.6295V24.1561Z" fill="#42ADE2"/>
<path d="M37.5629 24.1561C37.5629 24.5389 37.2816 24.7686 37.0004 24.7686H34.6801C34.3285 24.7686 34.1176 24.4623 34.1176 24.1561V21.6295C34.1176 21.2467 34.3988 21.017 34.6801 21.017H37.0004C37.3519 21.017 37.5629 21.3233 37.5629 21.6295V24.1561Z" fill="#FF435E"/>
<path d="M42.4847 24.1561C42.4847 24.5389 42.2035 24.7686 41.9222 24.7686H39.6019C39.2504 24.7686 39.0394 24.4623 39.0394 24.1561V21.6295C39.0394 21.2467 39.3207 21.017 39.6019 21.017H41.9222C42.2738 21.017 42.4847 21.3233 42.4847 21.6295V24.1561Z" fill="#C28FEF"/>
</g>
<defs>
<clipPath id="clip0_298_480">
<rect width="45" height="49" fill="white" transform="translate(1 8.0014)"/>
</clipPath>
</defs>
</svg>
