<svg width="79" height="26" viewBox="0 0 79 26" fill="none" xmlns="http://www.w3.org/2000/svg">
<path d="M23.09 5.58879H33.0188V7.02083H23.09V5.58879ZM27.2906 6.86808H28.8181V17.9998H27.2906V6.86808ZM39.5863 14.9257H41.0183C40.9165 15.5494 40.6874 16.1095 40.331 16.6059C39.9873 17.0896 39.529 17.4779 38.9562 17.7706C38.3961 18.0507 37.7469 18.1907 37.0086 18.1907C36.1176 18.1907 35.3156 17.9807 34.6028 17.5606C33.89 17.1278 33.3235 16.5423 32.9035 15.804C32.4961 15.053 32.2925 14.2001 32.2925 13.2454C32.2925 12.2907 32.4898 11.4379 32.8844 10.6868C33.2917 9.93581 33.8454 9.34391 34.5455 8.91111C35.2456 8.47832 36.0348 8.26192 36.9132 8.26192C37.8424 8.26192 38.6252 8.47195 39.2617 8.89202C39.9109 9.29935 40.3882 9.90399 40.6937 10.7059C41.012 11.4951 41.1393 12.4689 41.0756 13.6273H33.82C33.8836 14.251 34.0555 14.7984 34.3355 15.2693C34.6155 15.7403 34.9847 16.1095 35.4429 16.3768C35.9012 16.6314 36.4231 16.7587 37.0086 16.7587C37.6578 16.7587 38.2052 16.5932 38.6507 16.2622C39.109 15.9185 39.4208 15.473 39.5863 14.9257ZM36.9704 9.69396C36.1812 9.69396 35.5193 9.92308 34.9847 10.3813C34.4501 10.8396 34.0936 11.4633 33.9154 12.2525H39.5099C39.459 11.4124 39.1853 10.7759 38.6889 10.3431C38.2052 9.91035 37.6324 9.69396 36.9704 9.69396ZM43.0453 8.45286H44.5728V17.9998H43.0453V8.45286ZM47.8569 8.26192C48.3661 8.26192 48.8243 8.3383 49.2317 8.49105C49.639 8.6438 49.9827 8.86656 50.2627 9.15933C50.5428 9.4521 50.7592 9.80852 50.9119 10.2286C51.0647 10.6359 51.141 11.1005 51.141 11.6224V17.9998H49.6135V12.0043C49.6135 11.266 49.4417 10.7123 49.098 10.3431C48.7543 9.974 48.2388 9.78943 47.5514 9.78943C47.0295 9.78943 46.5458 9.92308 46.1003 10.1904C45.6547 10.4577 45.2856 10.8269 44.9928 11.2978C44.7128 11.7561 44.5409 12.2907 44.4773 12.9017L44.4582 11.7943C44.5218 11.2597 44.6491 10.7759 44.8401 10.3431C45.0437 9.91035 45.292 9.54121 45.5847 9.23571C45.8902 8.91748 46.2339 8.67562 46.6158 8.51014C47.0104 8.34466 47.4241 8.26192 47.8569 8.26192ZM53.6177 8.45286H55.1452V17.9998H53.6177V8.45286ZM58.4293 8.26192C58.9385 8.26192 59.3968 8.3383 59.8041 8.49105C60.2114 8.6438 60.5551 8.86656 60.8352 9.15933C61.1152 9.4521 61.3316 9.80852 61.4844 10.2286C61.6371 10.6359 61.7135 11.1005 61.7135 11.6224V17.9998H60.186V12.0043C60.186 11.266 60.0141 10.7123 59.6704 10.3431C59.3268 9.974 58.8112 9.78943 58.1238 9.78943C57.6019 9.78943 57.1182 9.92308 56.6727 10.1904C56.2272 10.4577 55.858 10.8269 55.5653 11.2978C55.2852 11.7561 55.1134 12.2907 55.0497 12.9017L55.0306 11.7943C55.0943 11.2597 55.2216 10.7759 55.4125 10.3431C55.6162 9.91035 55.8644 9.54121 56.1572 9.23571C56.4627 8.91748 56.8064 8.67562 57.1882 8.51014C57.5829 8.34466 57.9966 8.26192 58.4293 8.26192ZM66.0804 4.6341V6.4862H64.0947V4.6341H66.0804ZM64.3238 8.45286H65.8513V17.9998H64.3238V8.45286ZM68.0019 14.9257H69.4148C69.453 15.473 69.6567 15.9185 70.0258 16.2622C70.4077 16.6059 70.9551 16.7778 71.6679 16.7778C72.1007 16.7778 72.438 16.7205 72.6799 16.6059C72.9345 16.4914 73.119 16.3386 73.2336 16.1477C73.3482 15.944 73.4055 15.7212 73.4055 15.4794C73.4055 15.1866 73.3291 14.9575 73.1763 14.792C73.0363 14.6138 72.839 14.4674 72.5844 14.3528C72.3426 14.2383 72.0625 14.1301 71.7443 14.0283C71.3751 13.8882 70.9933 13.7418 70.5987 13.5891C70.2168 13.4236 69.854 13.2327 69.5103 13.0163C69.1794 12.7872 68.912 12.5135 68.7084 12.1952C68.5047 11.8643 68.4029 11.4697 68.4029 11.0114C68.4029 10.6296 68.4793 10.2731 68.632 9.94218C68.7848 9.59849 69.0011 9.30572 69.2812 9.06386C69.574 8.80928 69.9113 8.61198 70.2932 8.47196C70.6878 8.33193 71.1206 8.26192 71.5915 8.26192C72.228 8.26192 72.7626 8.38922 73.1954 8.6438C73.6409 8.89838 73.9783 9.26117 74.2074 9.73215C74.4492 10.1904 74.5765 10.725 74.5893 11.336H73.2718C73.1827 10.7632 72.9981 10.3495 72.7181 10.0949C72.4508 9.82762 72.0625 9.69396 71.5534 9.69396C71.0315 9.69396 70.6305 9.80852 70.3504 10.0376C70.0704 10.2668 69.9304 10.5723 69.9304 10.9541C69.9304 11.2342 70.0322 11.4697 70.2359 11.6606C70.4395 11.8388 70.7005 12.0043 71.0187 12.1571C71.3497 12.2971 71.6997 12.4435 72.0689 12.5962C72.438 12.749 72.7944 12.9017 73.1381 13.0545C73.4818 13.2072 73.7873 13.3854 74.0546 13.5891C74.322 13.7928 74.532 14.0473 74.6847 14.3528C74.8502 14.6456 74.933 15.0148 74.933 15.4603C74.933 15.9949 74.8057 16.4723 74.5511 16.8923C74.3092 17.2997 73.9464 17.6179 73.4627 17.847C72.9918 18.0761 72.4126 18.1907 71.7252 18.1907C71.1015 18.1907 70.5668 18.1143 70.1213 17.9616C69.6885 17.7961 69.3257 17.5861 69.033 17.3315C68.7402 17.0642 68.5111 16.7841 68.3456 16.4914C68.1928 16.1986 68.091 15.9122 68.0401 15.6321C67.9892 15.3521 67.9764 15.1166 68.0019 14.9257Z" fill="#BDBDBD"/>
<path d="M13.5577 5.90318C11.7805 4.12598 8.52994 4.48294 6.30464 6.70824C5.08946 7.92342 4.39073 9.64746 4.37554 10.855C4.36035 12.055 4.57301 13.8094 3.35023 15.0322L0.130005 18.2524L1.20848 19.3309L4.4287 16.1107C5.65148 14.8879 7.40589 15.1006 8.60588 15.0854C9.80587 15.0702 11.5375 14.3715 12.7527 13.1563C14.9704 10.931 15.3349 7.68038 13.5577 5.90318ZM6.57046 12.8829C5.40844 11.7209 5.773 9.38163 7.37551 7.77912C8.97803 6.1766 11.3097 5.81204 12.4793 6.97406C13.6413 8.13608 13.2767 10.4753 11.6742 12.0778C10.0717 13.6803 7.74007 14.0449 6.57046 12.8829Z" fill="#BDBDBD"/>
<path d="M12.4028 16.9239C12.8053 16.9239 13.1926 17.0834 13.4736 17.372C14.066 17.9644 14.066 18.929 13.4736 19.5214C13.1926 19.8024 12.8053 19.9619 12.4028 19.9619C12.0002 19.9619 11.6129 19.8024 11.3319 19.5138C10.7395 18.9214 10.7395 17.9568 11.3319 17.3644C11.6129 17.0834 12.0002 16.9239 12.4028 16.9239ZM12.4028 15.4049C11.6281 15.4049 10.8458 15.7011 10.2534 16.2935C9.06861 17.4783 9.06861 19.3998 10.2534 20.5922C10.8458 21.1846 11.6281 21.4808 12.4028 21.4808C13.1774 21.4808 13.9597 21.1846 14.5521 20.5922C15.7369 19.4074 15.7369 17.4859 14.5521 16.2935C13.9597 15.7011 13.1774 15.4049 12.4028 15.4049Z" fill="#BDBDBD"/>
</svg>
