<svg width="108" height="26" viewBox="0 0 108 26" fill="none" xmlns="http://www.w3.org/2000/svg">
<path d="M29.2457 17.9995L24.6823 5.58855H26.3244L30.2768 16.472H29.8185L33.7709 5.58855H35.3748L30.8496 17.9995H29.2457ZM40.1827 18.1905C39.3681 18.1905 38.6043 17.9932 37.8915 17.5986C37.1786 17.204 36.5995 16.6375 36.1539 15.8992C35.7211 15.1482 35.5047 14.2635 35.5047 13.2452C35.5047 12.2268 35.7211 11.3485 36.1539 10.6102C36.5995 9.8592 37.1786 9.28002 37.8915 8.87269C38.6043 8.46535 39.3681 8.26169 40.1827 8.26169C40.9974 8.26169 41.7548 8.46535 42.4549 8.87269C43.1677 9.28002 43.7405 9.8592 44.1733 10.6102C44.6061 11.3485 44.8225 12.2268 44.8225 13.2452C44.8225 14.2635 44.6061 15.1482 44.1733 15.8992C43.7405 16.6375 43.1677 17.204 42.4549 17.5986C41.7548 17.9932 40.9974 18.1905 40.1827 18.1905ZM40.1827 16.7584C40.7174 16.7584 41.2202 16.6248 41.6911 16.3575C42.1621 16.0901 42.544 15.6955 42.8368 15.1736C43.1423 14.639 43.295 13.9962 43.295 13.2452C43.295 12.4941 43.1423 11.8577 42.8368 11.3358C42.544 10.8012 42.1621 10.3938 41.6911 10.1138C41.2202 9.83374 40.7174 9.69372 40.1827 9.69372C39.6481 9.69372 39.1389 9.83374 38.6552 10.1138C38.1842 10.3811 37.796 10.7821 37.4905 11.3167C37.185 11.8386 37.0323 12.4814 37.0323 13.2452C37.0323 13.9962 37.1786 14.639 37.4714 15.1736C37.7769 15.6955 38.1715 16.0901 38.6552 16.3575C39.1389 16.6248 39.6481 16.7584 40.1827 16.7584ZM46.9519 4.63386H48.4794V17.9995H46.9519V4.63386ZM51.3525 4.63386H52.88V17.9995H51.3525V4.63386ZM62.3212 14.9254H63.7533C63.6515 15.5492 63.4223 16.1092 63.0659 16.6057C62.7222 17.0894 62.264 17.4776 61.6912 17.7704C61.1311 18.0504 60.4819 18.1905 59.7436 18.1905C58.8525 18.1905 58.0506 17.9804 57.3378 17.5604C56.6249 17.1276 56.0585 16.542 55.6384 15.8037C55.2311 15.0527 55.0274 14.1999 55.0274 13.2452C55.0274 12.2905 55.2247 11.4376 55.6193 10.6866C56.0267 9.93558 56.5804 9.34367 57.2805 8.91088C57.9806 8.47808 58.7698 8.26169 59.6481 8.26169C60.5773 8.26169 61.3602 8.47172 61.9967 8.89178C62.6458 9.29912 63.1232 9.90375 63.4287 10.7057C63.7469 11.4949 63.8742 12.4687 63.8106 13.627H56.5549C56.6186 14.2508 56.7904 14.7981 57.0705 15.2691C57.3505 15.7401 57.7196 16.1092 58.1779 16.3766C58.6361 16.6311 59.158 16.7584 59.7436 16.7584C60.3928 16.7584 60.9401 16.593 61.3857 16.262C61.8439 15.9183 62.1558 15.4728 62.3212 14.9254ZM59.7054 9.69372C58.9162 9.69372 58.2543 9.92285 57.7196 10.3811C57.185 10.8394 56.8286 11.4631 56.6504 12.2523H62.2449C62.194 11.4122 61.9203 10.7757 61.4238 10.3429C60.9401 9.91012 60.3673 9.69372 59.7054 9.69372ZM64.6413 8.45263H66.2834L69.7012 17.6177L68.3646 17.9995L64.6413 8.45263ZM73.5199 8.45263L68.1927 21.8183H66.5316L68.8419 16.663L71.8969 8.45263H73.5199ZM80.2005 18.1905C79.5004 18.1905 78.9276 18.0313 78.4821 17.7131C78.0365 17.3822 77.6865 16.9621 77.4319 16.4529C77.1901 15.931 77.0182 15.39 76.9164 14.83C76.8145 14.2571 76.7636 13.7289 76.7636 13.2452C76.7636 12.5578 76.8082 11.915 76.8973 11.3167C76.9991 10.7184 77.171 10.1902 77.4128 9.73191C77.6547 9.27366 77.9984 8.91724 78.4439 8.66266C78.9021 8.39534 79.4877 8.26169 80.2005 8.26169C81.0024 8.26169 81.7153 8.47808 82.339 8.91088C82.9627 9.34367 83.4528 9.93558 83.8092 10.6866C84.1657 11.4376 84.3439 12.2905 84.3439 13.2452C84.3439 14.1999 84.1593 15.0527 83.7901 15.8037C83.421 16.542 82.9246 17.1276 82.3008 17.5604C81.6771 17.9804 80.977 18.1905 80.2005 18.1905ZM79.8186 16.7393C80.4042 16.7393 80.9197 16.593 81.3652 16.3002C81.8108 15.9947 82.1608 15.581 82.4154 15.0591C82.6827 14.5245 82.8164 13.9198 82.8164 13.2452C82.8164 12.2268 82.5554 11.3867 82.0335 10.7248C81.5116 10.0501 80.7733 9.71282 79.8186 9.71282C79.1822 9.71282 78.6475 9.86557 78.2148 10.1711C77.7947 10.4638 77.4765 10.8775 77.2601 11.4122C77.0564 11.9341 76.9546 12.5451 76.9546 13.2452C76.9546 13.8816 77.0564 14.4672 77.2601 15.0018C77.4765 15.5237 77.7947 15.9438 78.2148 16.262C78.6348 16.5802 79.1694 16.7393 79.8186 16.7393ZM76.9546 4.63386V16.0901C76.9546 16.3193 76.9355 16.6248 76.8973 17.0066C76.8718 17.3885 76.8464 17.7195 76.8209 17.9995H75.4271V4.63386H76.9546ZM89.8999 18.1905C89.1488 18.1905 88.4551 17.9804 87.8186 17.5604C87.1949 17.1276 86.6921 16.542 86.3102 15.8037C85.9411 15.0527 85.7565 14.1999 85.7565 13.2452C85.7565 12.2905 85.9474 11.4376 86.3293 10.6866C86.7112 9.93558 87.2267 9.34367 87.8759 8.91088C88.5378 8.47808 89.2761 8.26169 90.0908 8.26169C90.9818 8.26169 91.6565 8.49081 92.1147 8.94906C92.5857 9.39459 92.904 9.99286 93.0694 10.7439C93.2476 11.4949 93.3367 12.3287 93.3367 13.2452C93.3367 13.7289 93.2858 14.2571 93.184 14.83C93.0822 15.39 92.904 15.931 92.6494 16.4529C92.4075 16.9621 92.0638 17.3822 91.6183 17.7131C91.1728 18.0313 90.6 18.1905 89.8999 18.1905ZM90.2817 16.7393C90.9309 16.7393 91.4656 16.5802 91.8856 16.262C92.3184 15.9438 92.6366 15.5237 92.8403 15.0018C93.044 14.4672 93.1458 13.8816 93.1458 13.2452C93.1458 12.5451 93.0376 11.9341 92.8212 11.4122C92.6175 10.8775 92.2993 10.4638 91.8665 10.1711C91.4465 9.86557 90.9182 9.71282 90.2817 9.71282C89.327 9.71282 88.5888 10.0501 88.0669 10.7248C87.545 11.3867 87.284 12.2268 87.284 13.2452C87.284 13.9198 87.4113 14.5245 87.6659 15.0591C87.9332 15.581 88.2896 15.9947 88.7351 16.3002C89.1934 16.593 89.7089 16.7393 90.2817 16.7393ZM93.1458 8.45263H94.6733V17.9995H93.2795C93.2795 17.9995 93.2667 17.885 93.2413 17.6558C93.2285 17.4267 93.2095 17.1594 93.184 16.8539C93.1585 16.5484 93.1458 16.2938 93.1458 16.0901V8.45263ZM97.3529 4.63386H98.8804V17.9995H97.3529V4.63386ZM101.753 4.63386H103.281V17.9995H101.753V4.63386Z" fill="#BDBDBD"/>
<path d="M8.78701 4.77301C4.17586 4.77301 0.433472 8.5154 0.433472 13.1265C0.433472 17.7377 4.17586 21.4801 8.78701 21.4801C13.3982 21.4801 17.1406 17.7377 17.1406 13.1265C17.1406 8.5154 13.3982 4.77301 8.78701 4.77301ZM9.62236 6.50219C12.1869 6.81963 14.2753 8.60729 15.0856 10.9797L9.62236 7.82205V6.50219ZM5.4456 7.3459C6.43131 6.76951 8.22732 6.46043 7.95166 6.49384V12.6337L5.4456 14.0789V7.3459ZM2.63045 15.7161C2.29631 14.9142 2.10418 14.0454 2.10418 13.1265C2.10418 11.4391 2.73905 9.90208 3.77489 8.72423V15.0562L2.63045 15.7161ZM3.47416 17.1613L8.78701 14.0872L11.2931 15.5324L5.4623 18.8988C4.68542 18.4561 4.00879 17.8714 3.47416 17.1613ZM8.78701 19.8094C8.33592 19.8094 7.89318 19.7593 7.46715 19.6757L12.9638 16.5014L14.0999 17.153C12.8802 18.7652 10.9589 19.8094 8.78701 19.8094ZM9.62236 12.642V9.75172L15.4698 13.1349C15.4698 14.0538 15.2777 14.9226 14.9436 15.7161L9.62236 12.642Z" fill="#BDBDBD"/>
</svg>
